<?xml version="1.0" encoding="UTF-8"?>
<!--Generator: Apple Native CoreSVG 232.5-->
<!DOCTYPE svg
PUBLIC "-//W3C//DTD SVG 1.1//EN"
       "http://www.w3.org/Graphics/SVG/1.1/DTD/svg11.dtd">
<svg version="1.1" xmlns="http://www.w3.org/2000/svg" xmlns:xlink="http://www.w3.org/1999/xlink" width="3300" height="2200">
 <!--glyph: "uni101AFC.medium", point size: 100.0, font version: "19.0d8e1", template writer version: "128"-->
 <style>.monochrome-0 {-sfsymbols-motion-group:2}
.monochrome-1 {-sfsymbols-motion-group:1}
.monochrome-2 {opacity:0.0;-sfsymbols-clear-behind:true;-sfsymbols-motion-group:0}
.monochrome-3 {-sfsymbols-motion-group:0}

.multicolor-0:white {-sfsymbols-motion-group:2}
.multicolor-1:systemYellowColor {-sfsymbols-motion-group:1}
.multicolor-2:tintColor {opacity:0.0;-sfsymbols-clear-behind:true;-sfsymbols-motion-group:0}
.multicolor-3:white {-sfsymbols-motion-group:0}

.hierarchical-0:primary {-sfsymbols-motion-group:2}
.hierarchical-1:secondary {-sfsymbols-motion-group:1}
.hierarchical-2:primary {opacity:0.0;-sfsymbols-clear-behind:true;-sfsymbols-motion-group:0}
.hierarchical-3:primary {-sfsymbols-motion-group:0}

.SFSymbolsPreviewWireframe {fill:none;opacity:1.0;stroke:black;stroke-width:0.5}
</style>
 <g id="Notes">
  <rect height="2200" id="artboard" style="fill:white;opacity:1" width="3300" x="0" y="0"/>
  <line style="fill:none;stroke:black;opacity:1;stroke-width:0.5;" x1="263" x2="3036" y1="292" y2="292"/>
  <text style="stroke:none;fill:black;font-family:sans-serif;font-size:13;font-weight:bold;" transform="matrix(1 0 0 1 263 322)">Weight/Scale Variations</text>
  <text style="stroke:none;fill:black;font-family:sans-serif;font-size:13;text-anchor:middle;" transform="matrix(1 0 0 1 559.711 322)">Ultralight</text>
  <text style="stroke:none;fill:black;font-family:sans-serif;font-size:13;text-anchor:middle;" transform="matrix(1 0 0 1 856.422 322)">Thin</text>
  <text style="stroke:none;fill:black;font-family:sans-serif;font-size:13;text-anchor:middle;" transform="matrix(1 0 0 1 1153.13 322)">Light</text>
  <text style="stroke:none;fill:black;font-family:sans-serif;font-size:13;text-anchor:middle;" transform="matrix(1 0 0 1 1449.84 322)">Regular</text>
  <text style="stroke:none;fill:black;font-family:sans-serif;font-size:13;text-anchor:middle;" transform="matrix(1 0 0 1 1746.56 322)">Medium</text>
  <text style="stroke:none;fill:black;font-family:sans-serif;font-size:13;text-anchor:middle;" transform="matrix(1 0 0 1 2043.27 322)">Semibold</text>
  <text style="stroke:none;fill:black;font-family:sans-serif;font-size:13;text-anchor:middle;" transform="matrix(1 0 0 1 2339.98 322)">Bold</text>
  <text style="stroke:none;fill:black;font-family:sans-serif;font-size:13;text-anchor:middle;" transform="matrix(1 0 0 1 2636.69 322)">Heavy</text>
  <text style="stroke:none;fill:black;font-family:sans-serif;font-size:13;text-anchor:middle;" transform="matrix(1 0 0 1 2933.4 322)">Black</text>
  <line style="fill:none;stroke:black;opacity:1;stroke-width:0.5;" x1="263" x2="3036" y1="1903" y2="1903"/>
  <g transform="matrix(0.2 0 0 0.2 263 1933)">
   <path d="m46.2402 4.15039c21.5332 0 39.4531-17.8711 39.4531-39.4043s-17.9688-39.4043-39.502-39.4043c-21.4844 0-39.3555 17.8711-39.3555 39.4043s17.9199 39.4043 39.4043 39.4043Zm0-7.42188c-17.7246 0-31.8848-14.209-31.8848-31.9824s14.1113-31.9824 31.8359-31.9824c17.7734 0 32.0312 14.209 32.0312 31.9824s-14.209 31.9824-31.9824 31.9824Zm-17.9688-31.9824c0 2.14844 1.51367 3.61328 3.75977 3.61328h10.498v10.5957c0 2.19727 1.46484 3.71094 3.61328 3.71094 2.24609 0 3.71094-1.51367 3.71094-3.71094v-10.5957h10.5957c2.19727 0 3.71094-1.46484 3.71094-3.61328 0-2.19727-1.51367-3.71094-3.71094-3.71094h-10.5957v-10.5469c0-2.24609-1.46484-3.75977-3.71094-3.75977-2.14844 0-3.61328 1.51367-3.61328 3.75977v10.5469h-10.498c-2.24609 0-3.75977 1.51367-3.75977 3.71094Z"/>
  </g>
  <g transform="matrix(0.2 0 0 0.2 281.506 1933)">
   <path d="m58.5449 14.5508c27.2461 0 49.8047-22.6074 49.8047-49.8047 0-27.2461-22.6074-49.8047-49.8535-49.8047-27.1973 0-49.7559 22.5586-49.7559 49.8047 0 27.1973 22.6074 49.8047 49.8047 49.8047Zm0-8.30078c-23.0469 0-41.4551-18.457-41.4551-41.5039s18.3594-41.5039 41.4062-41.5039 41.5527 18.457 41.5527 41.5039-18.457 41.5039-41.5039 41.5039Zm-22.6562-41.5039c0 2.39258 1.66016 4.00391 4.15039 4.00391h14.3555v14.4043c0 2.44141 1.66016 4.15039 4.05273 4.15039 2.44141 0 4.15039-1.66016 4.15039-4.15039v-14.4043h14.4043c2.44141 0 4.15039-1.61133 4.15039-4.00391 0-2.44141-1.70898-4.15039-4.15039-4.15039h-14.4043v-14.3555c0-2.49023-1.70898-4.19922-4.15039-4.19922-2.39258 0-4.05273 1.70898-4.05273 4.19922v14.3555h-14.3555c-2.49023 0-4.15039 1.70898-4.15039 4.15039Z"/>
  </g>
  <g transform="matrix(0.2 0 0 0.2 304.924 1933)">
   <path d="m74.8535 28.3203c34.8145 0 63.623-28.8086 63.623-63.5742 0-34.8145-28.8574-63.623-63.6719-63.623-34.7656 0-63.5254 28.8086-63.5254 63.623 0 34.7656 28.8086 63.5742 63.5742 63.5742Zm0-9.08203c-30.1758 0-54.4434-24.3164-54.4434-54.4922 0-30.2246 24.2188-54.4922 54.3945-54.4922 30.2246 0 54.541 24.2676 54.541 54.4922 0 30.1758-24.2676 54.4922-54.4922 54.4922Zm-28.8574-54.4922c0 2.58789 1.85547 4.39453 4.58984 4.39453h19.7266v19.7754c0 2.68555 1.85547 4.58984 4.44336 4.58984 2.68555 0 4.54102-1.85547 4.54102-4.58984v-19.7754h19.7754c2.68555 0 4.58984-1.80664 4.58984-4.39453 0-2.73438-1.85547-4.58984-4.58984-4.58984h-19.7754v-19.7266c0-2.73438-1.85547-4.63867-4.54102-4.63867-2.58789 0-4.44336 1.9043-4.44336 4.63867v19.7266h-19.7266c-2.73438 0-4.58984 1.85547-4.58984 4.58984Z"/>
  </g>
  <text style="stroke:none;fill:black;font-family:sans-serif;font-size:13;font-weight:bold;" transform="matrix(1 0 0 1 263 1953)">Design Variations</text>
  <text style="stroke:none;fill:black;font-family:sans-serif;font-size:13;" transform="matrix(1 0 0 1 263 1971)">Symbols are supported in up to nine weights and three scales.</text>
  <text style="stroke:none;fill:black;font-family:sans-serif;font-size:13;" transform="matrix(1 0 0 1 263 1989)">For optimal layout with text and other symbols, vertically align</text>
  <text style="stroke:none;fill:black;font-family:sans-serif;font-size:13;" transform="matrix(1 0 0 1 263 2007)">symbols with the adjacent text.</text>
  <line style="fill:none;stroke:#00AEEF;stroke-width:0.5;opacity:1.0;" x1="776" x2="776" y1="1919" y2="1933"/>
  <g transform="matrix(0.2 0 0 0.2 776 1933)">
   <path d="m16.5527 0.78125c2.58789 0 3.85742-0.976562 4.78516-3.71094l6.29883-17.2363h28.8086l6.29883 17.2363c0.927734 2.73438 2.19727 3.71094 4.73633 3.71094 2.58789 0 4.24805-1.5625 4.24805-4.00391 0-0.830078-0.146484-1.61133-0.537109-2.63672l-22.9004-60.9863c-1.12305-2.97852-3.125-4.49219-6.25-4.49219-3.02734 0-5.07812 1.46484-6.15234 4.44336l-22.9004 61.084c-0.390625 1.02539-0.537109 1.80664-0.537109 2.63672 0 2.44141 1.5625 3.95508 4.10156 3.95508Zm13.4766-28.3691 11.8652-32.8613h0.244141l11.8652 32.8613Z"/>
  </g>
  <line style="fill:none;stroke:#00AEEF;stroke-width:0.5;opacity:1.0;" x1="792.836" x2="792.836" y1="1919" y2="1933"/>
  <text style="stroke:none;fill:black;font-family:sans-serif;font-size:13;font-weight:bold;" transform="matrix(1 0 0 1 776 1953)">Margins</text>
  <text style="stroke:none;fill:black;font-family:sans-serif;font-size:13;" transform="matrix(1 0 0 1 776 1971)">Leading and trailing margins on the left and right side of each symbol</text>
  <text style="stroke:none;fill:black;font-family:sans-serif;font-size:13;" transform="matrix(1 0 0 1 776 1989)">can be adjusted by modifying the x-location of the margin guidelines.</text>
  <text style="stroke:none;fill:black;font-family:sans-serif;font-size:13;" transform="matrix(1 0 0 1 776 2007)">Modifications are automatically applied proportionally to all</text>
  <text style="stroke:none;fill:black;font-family:sans-serif;font-size:13;" transform="matrix(1 0 0 1 776 2025)">scales and weights.</text>
  <g transform="matrix(0.2 0 0 0.2 1289 1933)">
   <path d="m14.209 9.32617 8.49609 8.54492c4.29688 4.3457 9.22852 4.05273 13.8672-1.07422l53.4668-58.9355-4.83398-4.88281-53.0762 58.3984c-1.75781 2.00195-3.41797 2.49023-5.76172 0.146484l-5.85938-5.81055c-2.34375-2.29492-1.80664-4.00391 0.195312-5.81055l57.373-54.0039-4.88281-4.83398-57.959 54.4434c-4.93164 4.58984-5.32227 9.47266-1.02539 13.8184Zm32.0801-90.9668c-2.09961 2.05078-2.24609 4.93164-1.07422 6.88477 1.17188 1.80664 3.4668 2.97852 6.68945 2.14844 7.32422-1.70898 14.9414-2.00195 22.0703 2.68555l-2.92969 7.27539c-1.70898 4.15039-0.830078 7.08008 1.85547 9.81445l11.4746 11.5723c2.44141 2.44141 4.49219 2.53906 7.32422 2.05078l5.32227-0.976562 3.32031 3.36914-0.195312 2.7832c-0.195312 2.49023 0.439453 4.39453 2.88086 6.78711l3.80859 3.71094c2.39258 2.39258 5.46875 2.53906 7.8125 0.195312l14.5508-14.5996c2.34375-2.34375 2.24609-5.32227-0.146484-7.71484l-3.85742-3.80859c-2.39258-2.39258-4.24805-3.17383-6.64062-2.97852l-2.88086 0.244141-3.22266-3.17383 1.2207-5.61523c0.634766-2.83203-0.146484-5.0293-3.07617-7.95898l-10.9863-10.9375c-16.6992-16.6016-38.8672-16.2109-53.3203-1.75781Zm7.4707 1.85547c12.1582-8.88672 28.6133-7.37305 39.7461 3.75977l12.1582 12.0605c1.17188 1.17188 1.36719 2.09961 1.02539 3.80859l-1.61133 7.42188 7.51953 7.42188 4.93164-0.292969c1.26953-0.0488281 1.66016 0.0488281 2.63672 1.02539l2.88086 2.88086-12.207 12.207-2.88086-2.88086c-0.976562-0.976562-1.12305-1.36719-1.07422-2.68555l0.341797-4.88281-7.4707-7.42188-7.61719 1.26953c-1.61133 0.341797-2.34375 0.195312-3.56445-0.976562l-10.0098-10.0098c-1.26953-1.17188-1.41602-2.00195-0.634766-3.85742l4.39453-10.4492c-7.8125-7.27539-17.9688-10.4004-28.125-7.42188-0.78125 0.195312-1.07422-0.439453-0.439453-0.976562Z"/>
  </g>
  <text style="stroke:none;fill:black;font-family:sans-serif;font-size:13;font-weight:bold;" transform="matrix(1 0 0 1 1289 1953)">Exporting</text>
  <text style="stroke:none;fill:black;font-family:sans-serif;font-size:13;" transform="matrix(1 0 0 1 1289 1971)">Symbols should be outlined when exporting to ensure the</text>
  <text style="stroke:none;fill:black;font-family:sans-serif;font-size:13;" transform="matrix(1 0 0 1 1289 1989)">design is preserved when submitting to Xcode.</text>
  <text id="template-version" style="stroke:none;fill:black;font-family:sans-serif;font-size:13;text-anchor:end;" transform="matrix(1 0 0 1 3036 1933)">Template v.5.0</text>
  <text style="stroke:none;fill:black;font-family:sans-serif;font-size:13;text-anchor:end;" transform="matrix(1 0 0 1 3036 1951)">Requires Xcode 15 or greater</text>
  <text id="descriptive-name" style="stroke:none;fill:black;font-family:sans-serif;font-size:13;text-anchor:end;" transform="matrix(1 0 0 1 3036 1969)">Generated from cloud.sun.bolt.fill</text>
  <text style="stroke:none;fill:black;font-family:sans-serif;font-size:13;text-anchor:end;" transform="matrix(1 0 0 1 3036 1987)">Typeset at 100.0 points</text>
  <text style="stroke:none;fill:black;font-family:sans-serif;font-size:13;" transform="matrix(1 0 0 1 263 726)">Small</text>
  <text style="stroke:none;fill:black;font-family:sans-serif;font-size:13;" transform="matrix(1 0 0 1 263 1156)">Medium</text>
  <text style="stroke:none;fill:black;font-family:sans-serif;font-size:13;" transform="matrix(1 0 0 1 263 1586)">Large</text>
 </g>
 <g id="Guides">
  <g id="H-reference" style="fill:#27AAE1;stroke:none;" transform="matrix(1 0 0 1 339 696)">
   <path d="M0.993654 0L3.63775 0L29.3281-67.1323L30.0303-67.1323L30.0303-70.459L28.1226-70.459ZM11.6885-24.4799L46.9815-24.4799L46.2315-26.7285L12.4385-26.7285ZM55.1196 0L57.7637 0L30.6382-70.459L29.4326-70.459L29.4326-67.1323Z"/>
  </g>
  <line id="Baseline-S" style="fill:none;stroke:#27AAE1;opacity:1;stroke-width:0.5;" x1="263" x2="3036" y1="696" y2="696"/>
  <line id="Capline-S" style="fill:none;stroke:#27AAE1;opacity:1;stroke-width:0.5;" x1="263" x2="3036" y1="625.541" y2="625.541"/>
  <g id="H-reference" style="fill:#27AAE1;stroke:none;" transform="matrix(1 0 0 1 339 1126)">
   <path d="M0.993654 0L3.63775 0L29.3281-67.1323L30.0303-67.1323L30.0303-70.459L28.1226-70.459ZM11.6885-24.4799L46.9815-24.4799L46.2315-26.7285L12.4385-26.7285ZM55.1196 0L57.7637 0L30.6382-70.459L29.4326-70.459L29.4326-67.1323Z"/>
  </g>
  <line id="Baseline-M" style="fill:none;stroke:#27AAE1;opacity:1;stroke-width:0.5;" x1="263" x2="3036" y1="1126" y2="1126"/>
  <line id="Capline-M" style="fill:none;stroke:#27AAE1;opacity:1;stroke-width:0.5;" x1="263" x2="3036" y1="1055.54" y2="1055.54"/>
  <g id="H-reference" style="fill:#27AAE1;stroke:none;" transform="matrix(1 0 0 1 339 1556)">
   <path d="M0.993654 0L3.63775 0L29.3281-67.1323L30.0303-67.1323L30.0303-70.459L28.1226-70.459ZM11.6885-24.4799L46.9815-24.4799L46.2315-26.7285L12.4385-26.7285ZM55.1196 0L57.7637 0L30.6382-70.459L29.4326-70.459L29.4326-67.1323Z"/>
  </g>
  <line id="Baseline-L" style="fill:none;stroke:#27AAE1;opacity:1;stroke-width:0.5;" x1="263" x2="3036" y1="1556" y2="1556"/>
  <line id="Capline-L" style="fill:none;stroke:#27AAE1;opacity:1;stroke-width:0.5;" x1="263" x2="3036" y1="1485.54" y2="1485.54"/>
  <line id="left-margin-Ultralight-S" style="fill:none;stroke:#00AEEF;stroke-width:0.5;opacity:1.0;" x1="505.373" x2="505.373" y1="600.785" y2="720.121"/>
  <line id="right-margin-Ultralight-S" style="fill:none;stroke:#FF3B30;stroke-width:0.5;opacity:1.0;" x1="614.049" x2="614.049" y1="600.785" y2="720.121"/>
  <line id="left-margin-Regular-S" style="fill:none;stroke:#FF3B30;stroke-width:0.5;opacity:1.0;" x1="1393.99" x2="1393.99" y1="600.785" y2="720.121"/>
  <line id="right-margin-Regular-S" style="fill:none;stroke:#FF3B30;stroke-width:0.5;opacity:1.0;" x1="1505.7" x2="1505.7" y1="600.785" y2="720.121"/>
  <line id="left-margin-Black-S" style="fill:none;stroke:#FF3B30;stroke-width:0.5;opacity:1.0;" x1="2872.61" x2="2872.61" y1="600.785" y2="720.121"/>
  <line id="right-margin-Black-S" style="fill:none;stroke:#FF3B30;stroke-width:0.5;opacity:1.0;" x1="2994.19" x2="2994.19" y1="600.785" y2="720.121"/>
 </g>
 <g id="Symbols">
  <g id="Black-S" transform="matrix(1 0 0 1 2872.61 696)">
   <path class="SFSymbolsPreviewWireframe" d="M83.1543-26.8555C80.5176-26.8555 78.3691-24.6094 78.3691-21.9727L78.3691-15.7227C78.3691-13.0371 80.5176-10.8398 83.1543-10.8398C85.791-10.8398 87.9395-13.0371 87.9395-15.7227L87.9395-21.9727C87.9395-24.6094 85.791-26.8555 83.1543-26.8555Z"/>
   <path class="monochrome-0 multicolor-0:white hierarchical-0:primary SFSymbolsPreviewWireframe" d="M38.3789-2.09961C37.2559-2.09961 36.8652-1.70898 36.5234-0.878906L31.1035 11.4746C30.7129 12.4023 31.0547 13.0371 32.0801 13.0371L40.5273 13.0371L40.5273 10.5957L34.1797 25.9766C33.9355 26.5137 34.082 26.9531 34.4238 27.0996C34.7656 27.2461 35.2051 27.1484 35.6445 26.7578L57.7148 7.27539C58.6426 6.49414 58.3008 5.27344 57.1289 5.27344L46.6797 5.27344L46.3379 8.20312L50.9277-0.585938C51.3672-1.41602 51.0254-2.09961 50.1465-2.09961Z"/>
   <path class="monochrome-1 multicolor-1:systemYellowColor hierarchical-1:secondary SFSymbolsPreviewWireframe" d="M83.0566-32.7148C94.1895-32.7148 103.174-41.6992 103.174-52.832C103.174-63.9648 94.1895-72.9492 83.0566-72.9492C71.9238-72.9492 62.9395-63.9648 62.9395-52.832C62.9395-41.6992 71.9238-32.7148 83.0566-32.7148ZM83.1543-78.8086C85.791-78.8086 87.9395-81.0547 87.9395-83.6914L87.9395-89.9414C87.9395-92.627 85.791-94.8242 83.1543-94.8242C80.5176-94.8242 78.3691-92.627 78.3691-89.9414L78.3691-83.6914C78.3691-81.0547 80.5176-78.8086 83.1543-78.8086ZM101.416-71.1426C103.271-69.2871 106.396-69.3848 108.252-71.2402L112.695-75.6348C114.6-77.4902 114.6-80.6152 112.744-82.4707C110.889-84.3262 107.812-84.2773 105.908-82.373L101.465-78.0273C99.5605-76.1719 99.5605-72.998 101.416-71.1426ZM108.936-52.8809C108.936-50.2441 111.182-48.0469 113.818-48.0469L120.117-48.0469C122.803-48.0469 125-50.2441 125-52.8809C125-55.5176 122.803-57.6172 120.117-57.6172L113.818-57.6172C111.182-57.6172 108.936-55.5176 108.936-52.8809ZM101.416-34.5215C99.5605-32.666 99.5605-29.4922 101.465-27.6367L105.908-23.291C107.812-21.3867 110.889-21.3379 112.744-23.1934C114.6-25.0488 114.6-28.1738 112.695-30.0293L108.252-34.4238C106.396-36.2793 103.271-36.377 101.416-34.5215ZM64.6973-34.5215C62.8418-36.377 59.7168-36.2793 57.8613-34.4238L53.418-30.0293C51.5137-28.1738 51.5137-25.0488 53.3691-23.1934C55.2246-21.3379 58.3008-21.3867 60.2051-23.291L64.6484-27.6367C66.5527-29.4922 66.5527-32.666 64.6973-34.5215ZM57.1777-52.8809C57.1777-55.5176 54.9316-57.6172 52.2949-57.6172L45.9961-57.6172C43.3105-57.6172 41.1133-55.5176 41.1133-52.8809C41.1133-50.2441 43.3105-48.0469 45.9961-48.0469L52.2949-48.0469C54.9316-48.0469 57.1777-50.2441 57.1777-52.8809ZM64.6973-71.1426C66.5527-72.998 66.5527-76.1719 64.6484-78.0273L60.2051-82.373C58.3008-84.2773 55.2246-84.3262 53.3691-82.4707C51.5137-80.6152 51.5137-77.4902 53.418-75.6348L57.8613-71.2402C59.7168-69.3848 62.8418-69.2871 64.6973-71.1426Z"/>
   <path class="monochrome-2 multicolor-2:tintColor hierarchical-2:primary SFSymbolsPreviewWireframe" d="M20.5566-0.292969L68.3105-0.292969C84.1309-0.292969 96.1426-12.8418 96.1426-28.9551C96.1426-44.2871 85.5957-56.1035 70.8984-58.1055C65.6738-65.4785 56.543-72.5098 42.0898-72.5098C25.5859-72.5098 11.7188-61.4746 8.10547-46.1914C0.244141-42.1387-4.63867-34.0332-4.63867-24.6582C-4.63867-10.4004 6.00586-0.292969 20.5566-0.292969Z"/>
   <path class="monochrome-3 multicolor-3:white hierarchical-3:primary SFSymbolsPreviewWireframe" d="M20.5566-8.34961L68.3105-8.34961C79.5898-8.34961 88.0859-17.1875 88.0859-28.9551C88.0859-41.4062 78.9062-50.4395 66.2598-50.3418C62.5-57.3242 55.2246-64.4531 42.0898-64.4531C27.9297-64.4531 16.4062-54.1016 15.332-40.332C8.10547-38.5254 3.41797-32.373 3.41797-24.6582C3.41797-14.9414 10.3516-8.34961 20.5566-8.34961Z"/>
  </g>
  <g id="Regular-S" transform="matrix(1 0 0 1 1393.99 696)">
   <path class="SFSymbolsPreviewWireframe" d="M75.293-24.2188C73.291-24.2188 71.6309-22.5098 71.6309-20.5566L71.6309-12.9395C71.6309-10.8887 73.291-9.27734 75.293-9.27734C77.3438-9.27734 78.9551-10.8887 78.9551-12.9395L78.9551-20.5566C78.9551-22.5098 77.3438-24.2188 75.293-24.2188Z"/>
   <path class="monochrome-0 multicolor-0:white hierarchical-0:primary SFSymbolsPreviewWireframe" d="M38.5254-6.05469C37.5-6.05469 37.1582-5.66406 36.8164-4.93164L31.8359 6.34766C31.4453 7.22656 31.7871 7.8125 32.7637 7.8125L39.9414 7.8125L40.4297 5.61523L34.5215 19.8242C34.3262 20.3125 34.4238 20.7031 34.8145 20.8496C35.1562 20.9961 35.5469 20.8984 35.9375 20.5078L53.5156 3.61328C54.3457 2.7832 54.1016 1.75781 53.0273 1.75781L44.3359 1.75781L44.1406 3.51562L48.3887-4.63867C48.8281-5.46875 48.4863-6.05469 47.6562-6.05469Z"/>
   <path class="monochrome-1 multicolor-1:systemYellowColor hierarchical-1:secondary SFSymbolsPreviewWireframe" d="M75.3418-30.0293C85.9863-30.0293 94.5801-38.6719 94.5801-49.2676C94.5801-59.8633 85.9863-68.457 75.3418-68.457C64.7461-68.457 56.1523-59.8633 56.1523-49.2676C56.1523-38.6719 64.7461-30.0293 75.3418-30.0293ZM75.293-74.3164C77.3438-74.3164 78.9551-75.9766 78.9551-77.9785L78.9551-85.5957C78.9551-87.5977 77.3438-89.2578 75.293-89.2578C73.291-89.2578 71.6309-87.5977 71.6309-85.5957L71.6309-77.9785C71.6309-75.9766 73.291-74.3164 75.293-74.3164ZM92.9688-66.9434C94.3359-65.5273 96.7285-65.4785 98.1934-66.9434L103.564-72.3633C104.98-73.7305 104.98-76.0742 103.564-77.4902C102.148-78.9062 99.8535-78.9062 98.4375-77.4902L92.9688-72.0215C91.6016-70.6543 91.6504-68.3105 92.9688-66.9434ZM100.293-49.2676C100.293-47.2168 102.002-45.6055 103.955-45.6055L111.572-45.6055C113.574-45.6055 115.186-47.2168 115.186-49.2676C115.186-51.2695 113.574-52.9297 111.572-52.9297L103.955-52.9297C102.002-52.9297 100.293-51.2695 100.293-49.2676ZM92.9688-31.5918C91.6504-30.1758 91.6016-27.8809 92.9688-26.4648L98.4375-20.9961C99.8535-19.5801 102.148-19.5801 103.564-20.9961C104.98-22.4121 104.98-24.7559 103.564-26.1719L98.1934-31.5918C96.7285-33.0078 94.3359-32.959 92.9688-31.5918ZM57.6172-31.5918C56.2988-32.959 53.9062-33.0078 52.4414-31.5918L47.0703-26.1719C45.6543-24.7559 45.6543-22.4121 47.0703-20.9961C48.4863-19.5801 50.7812-19.5801 52.1484-20.9961L57.6172-26.4648C59.0332-27.8809 58.9844-30.1758 57.6172-31.5918ZM50.293-49.2676C50.293-51.2695 48.6328-52.9297 46.6797-52.9297L39.0137-52.9297C37.0605-52.9297 35.4004-51.2695 35.4004-49.2676C35.4004-47.2168 37.0605-45.6055 39.0137-45.6055L46.6797-45.6055C48.6328-45.6055 50.293-47.2168 50.293-49.2676ZM57.6172-66.9434C58.9844-68.3594 59.0332-70.6543 57.6172-72.0215L52.1484-77.4902C50.7812-78.9062 48.4863-78.9062 47.0703-77.4902C45.6543-76.0742 45.6543-73.7793 47.0703-72.3633L52.4414-66.9434C53.9062-65.4785 56.2988-65.5273 57.6172-66.9434Z"/>
   <path class="monochrome-2 multicolor-2:tintColor hierarchical-2:primary SFSymbolsPreviewWireframe" d="M20.2148-6.78711L61.4746-6.78711C75.293-6.78711 86.1328-17.4316 86.1328-31.1035C86.1328-43.7988 76.6113-53.5645 63.8184-54.9805C58.252-63.5254 49.2188-68.5547 39.0137-68.5547C24.8047-68.5547 12.6465-58.4473 9.86328-44.8242C3.07617-41.4551-1.17188-34.668-1.17188-26.7578C-1.17188-15.0391 7.76367-6.78711 20.2148-6.78711Z"/>
   <path class="monochrome-3 multicolor-3:white hierarchical-3:primary SFSymbolsPreviewWireframe" d="M20.2148-11.9141L61.4746-11.9141C72.4609-11.9141 81.0059-20.2637 81.0059-31.1035C81.0059-41.8457 72.3145-49.9512 60.7422-50.0488C56.3477-58.4473 48.291-63.4277 39.0137-63.4277C26.416-63.4277 15.7227-53.7598 14.502-41.1621C8.05664-39.1602 3.95508-33.5938 3.95508-26.7578C3.95508-17.9688 10.5469-11.9141 20.2148-11.9141Z"/>
  </g>
  <g id="Ultralight-S" transform="matrix(1 0 0 1 505.373 696)">
   <path class="SFSymbolsPreviewWireframe" d="M74.7935-24.7637C74.1992-24.7637 73.7197-24.2807 73.7197-23.7807L73.7197-12.6216C73.7197-12.0693 74.1992-11.5932 74.7935-11.5932C75.3457-11.5932 75.8672-12.0693 75.8672-12.6216L75.8672-23.7807C75.8672-24.2807 75.3457-24.7637 74.7935-24.7637Z"/>
   <path class="monochrome-0 multicolor-0:white hierarchical-0:primary SFSymbolsPreviewWireframe" d="M41.6133-7.0537C40.497-7.0537 40.1098-6.66308 39.768-5.83984L35.2417 4.57667C34.8056 5.59181 35.4199 6.13234 36.351 6.13234L41.7578 6.13234L42.2461 3.79884L36.6103 17.2813C36.3696 17.8604 36.5127 18.2964 36.9033 18.4429C37.2905 18.5894 37.772 18.4463 38.1172 17.9195L47.8848 4.02197C48.4878 3.14648 48.1075 2.25732 47.0333 2.25732L39.9766 2.25732L40.4624 3.28858L45.21-5.54687C45.6494-6.37695 45.3076-7.0537 44.4322-7.0537Z"/>
   <path class="monochrome-1 multicolor-1:systemYellowColor hierarchical-1:secondary SFSymbolsPreviewWireframe" d="M74.8877-31.9365C84.7603-31.9365 92.7637-39.9433 92.7637-49.8125C92.7637-59.7271 84.7603-67.7305 74.8877-67.7305C64.9731-67.7305 56.9697-59.7271 56.9697-49.8125C56.9697-39.9433 64.9731-31.9365 74.8877-31.9365ZM74.7935-74.8613C75.3457-74.8613 75.8672-75.3862 75.8672-75.8897L75.8672-87.0488C75.8672-87.5977 75.3457-88.0317 74.7935-88.0317C74.1992-88.0317 73.7197-87.5977 73.7197-87.0488L73.7197-75.8897C73.7197-75.3862 74.1992-74.8613 74.7935-74.8613ZM92.4692-67.4883C92.8374-67.1167 93.5044-67.1133 93.9248-67.4883L101.793-75.3603C102.256-75.8193 102.21-76.4375 101.793-76.8545C101.422-77.2261 100.762-77.2715 100.345-76.8545L92.4692-68.979C92.0557-68.5654 92.0591-67.9019 92.4692-67.4883ZM99.7481-49.8125C99.7481-49.2602 100.186-48.8296 100.731-48.8296L111.936-48.8296C112.575-48.8296 113.006-49.2602 113.006-49.8125C113.006-50.4067 112.575-50.8408 111.936-50.8408L100.731-50.8408C100.186-50.8408 99.7481-50.4067 99.7481-49.8125ZM92.4692-32.1367C92.0591-31.7651 92.0557-31.105 92.4692-30.688L100.345-22.8125C100.762-22.3501 101.422-22.3955 101.793-22.8125C102.21-23.1841 102.256-23.8477 101.793-24.2647L93.9248-32.1367C93.5044-32.5537 92.8374-32.5503 92.4692-32.1367ZM57.1177-32.1367C56.7075-32.5503 56.0405-32.5537 55.6655-32.1367L47.7515-24.2647C47.3345-23.8477 47.3799-23.1841 47.7515-22.8125C48.1685-22.3955 48.7832-22.3501 49.2422-22.8125L57.1177-30.688C57.4893-31.105 57.4859-31.7651 57.1177-32.1367ZM49.8389-49.8125C49.8389-50.4067 49.3594-50.8408 48.8139-50.8408L37.606-50.8408C37.0151-50.8408 36.581-50.4067 36.581-49.8125C36.581-49.2602 37.0151-48.8296 37.606-48.8296L48.8139-48.8296C49.3594-48.8296 49.8389-49.2602 49.8389-49.8125ZM57.1177-67.5337C57.4859-67.9507 57.4893-68.6109 57.1177-69.0244L49.2422-76.8999C48.7832-77.3169 48.1685-77.2715 47.7515-76.8999C47.3799-76.4829 47.3345-75.8681 47.7515-75.4057L55.6655-67.5337C56.0405-67.1587 56.7075-67.1621 57.1177-67.5337Z"/>
   <path class="monochrome-2 multicolor-2:tintColor hierarchical-2:primary SFSymbolsPreviewWireframe" d="M19.0342-10.102L61.1113-10.102C72.75-10.102 82.0913-18.9756 82.0913-30.2861C82.0913-41.2105 73.4326-49.4322 61.9111-50.2124C56.6626-59.3931 48.4922-64.4224 38.6958-64.4224C26.0308-64.4224 15.2803-54.542 13.3598-41.5093C6.34568-39.0029 1.77976-33.124 1.77976-25.9858C1.77976-16.6738 9.12597-10.102 19.0342-10.102Z"/>
   <path class="monochrome-3 multicolor-3:white hierarchical-3:primary SFSymbolsPreviewWireframe" d="M19.0342-13.1401L61.1113-13.1401C71.0986-13.1401 79.0532-20.6724 79.0532-30.2861C79.0532-39.9839 70.9067-47.272 60.1065-47.2334C55.3941-56.4492 47.8823-61.3843 38.6958-61.3843C26.9609-61.3843 17.085-51.7163 16.1367-39.2095C9.2373-37.48 4.81786-32.3223 4.81786-25.9858C4.81786-18.4228 10.6831-13.1401 19.0342-13.1401Z"/>
  </g>
 </g>
</svg>
