<?xml version="1.0" encoding="UTF-8"?>
<!--Generator: Apple Native CoreSVG 232.5-->
<!DOCTYPE svg
PUBLIC "-//W3C//DTD SVG 1.1//EN"
       "http://www.w3.org/Graphics/SVG/1.1/DTD/svg11.dtd">
<svg version="1.1" xmlns="http://www.w3.org/2000/svg" xmlns:xlink="http://www.w3.org/1999/xlink" width="3300" height="2200">
 <!--glyph: "uni1001C9.medium", point size: 100.0, font version: "19.0d8e1", template writer version: "128"-->
 <style>.monochrome-0 {-sfsymbols-motion-group:1}
.monochrome-1 {-sfsymbols-motion-group:1}
.monochrome-2 {-sfsymbols-motion-group:1}
.monochrome-3 {-sfsymbols-motion-group:1}
.monochrome-4 {-sfsymbols-motion-group:0}

.multicolor-0:systemCyanColor {-sfsymbols-motion-group:1}
.multicolor-1:systemCyanColor {-sfsymbols-motion-group:1}
.multicolor-2:systemCyanColor {-sfsymbols-motion-group:1}
.multicolor-3:systemCyanColor {-sfsymbols-motion-group:1}
.multicolor-4:white {-sfsymbols-motion-group:0}

.hierarchical-0:secondary {-sfsymbols-motion-group:1}
.hierarchical-1:secondary {-sfsymbols-motion-group:1}
.hierarchical-2:secondary {-sfsymbols-motion-group:1}
.hierarchical-3:secondary {-sfsymbols-motion-group:1}
.hierarchical-4:primary {-sfsymbols-motion-group:0}

.SFSymbolsPreviewWireframe {fill:none;opacity:1.0;stroke:black;stroke-width:0.5}
</style>
 <g id="Notes">
  <rect height="2200" id="artboard" style="fill:white;opacity:1" width="3300" x="0" y="0"/>
  <line style="fill:none;stroke:black;opacity:1;stroke-width:0.5;" x1="263" x2="3036" y1="292" y2="292"/>
  <text style="stroke:none;fill:black;font-family:sans-serif;font-size:13;font-weight:bold;" transform="matrix(1 0 0 1 263 322)">Weight/Scale Variations</text>
  <text style="stroke:none;fill:black;font-family:sans-serif;font-size:13;text-anchor:middle;" transform="matrix(1 0 0 1 559.711 322)">Ultralight</text>
  <text style="stroke:none;fill:black;font-family:sans-serif;font-size:13;text-anchor:middle;" transform="matrix(1 0 0 1 856.422 322)">Thin</text>
  <text style="stroke:none;fill:black;font-family:sans-serif;font-size:13;text-anchor:middle;" transform="matrix(1 0 0 1 1153.13 322)">Light</text>
  <text style="stroke:none;fill:black;font-family:sans-serif;font-size:13;text-anchor:middle;" transform="matrix(1 0 0 1 1449.84 322)">Regular</text>
  <text style="stroke:none;fill:black;font-family:sans-serif;font-size:13;text-anchor:middle;" transform="matrix(1 0 0 1 1746.56 322)">Medium</text>
  <text style="stroke:none;fill:black;font-family:sans-serif;font-size:13;text-anchor:middle;" transform="matrix(1 0 0 1 2043.27 322)">Semibold</text>
  <text style="stroke:none;fill:black;font-family:sans-serif;font-size:13;text-anchor:middle;" transform="matrix(1 0 0 1 2339.98 322)">Bold</text>
  <text style="stroke:none;fill:black;font-family:sans-serif;font-size:13;text-anchor:middle;" transform="matrix(1 0 0 1 2636.69 322)">Heavy</text>
  <text style="stroke:none;fill:black;font-family:sans-serif;font-size:13;text-anchor:middle;" transform="matrix(1 0 0 1 2933.4 322)">Black</text>
  <line style="fill:none;stroke:black;opacity:1;stroke-width:0.5;" x1="263" x2="3036" y1="1903" y2="1903"/>
  <g transform="matrix(0.2 0 0 0.2 263 1933)">
   <path d="m46.2402 4.15039c21.5332 0 39.4531-17.8711 39.4531-39.4043s-17.9688-39.4043-39.502-39.4043c-21.4844 0-39.3555 17.8711-39.3555 39.4043s17.9199 39.4043 39.4043 39.4043Zm0-7.42188c-17.7246 0-31.8848-14.209-31.8848-31.9824s14.1113-31.9824 31.8359-31.9824c17.7734 0 32.0312 14.209 32.0312 31.9824s-14.209 31.9824-31.9824 31.9824Zm-17.9688-31.9824c0 2.14844 1.51367 3.61328 3.75977 3.61328h10.498v10.5957c0 2.19727 1.46484 3.71094 3.61328 3.71094 2.24609 0 3.71094-1.51367 3.71094-3.71094v-10.5957h10.5957c2.19727 0 3.71094-1.46484 3.71094-3.61328 0-2.19727-1.51367-3.71094-3.71094-3.71094h-10.5957v-10.5469c0-2.24609-1.46484-3.75977-3.71094-3.75977-2.14844 0-3.61328 1.51367-3.61328 3.75977v10.5469h-10.498c-2.24609 0-3.75977 1.51367-3.75977 3.71094Z"/>
  </g>
  <g transform="matrix(0.2 0 0 0.2 281.506 1933)">
   <path d="m58.5449 14.5508c27.2461 0 49.8047-22.6074 49.8047-49.8047 0-27.2461-22.6074-49.8047-49.8535-49.8047-27.1973 0-49.7559 22.5586-49.7559 49.8047 0 27.1973 22.6074 49.8047 49.8047 49.8047Zm0-8.30078c-23.0469 0-41.4551-18.457-41.4551-41.5039s18.3594-41.5039 41.4062-41.5039 41.5527 18.457 41.5527 41.5039-18.457 41.5039-41.5039 41.5039Zm-22.6562-41.5039c0 2.39258 1.66016 4.00391 4.15039 4.00391h14.3555v14.4043c0 2.44141 1.66016 4.15039 4.05273 4.15039 2.44141 0 4.15039-1.66016 4.15039-4.15039v-14.4043h14.4043c2.44141 0 4.15039-1.61133 4.15039-4.00391 0-2.44141-1.70898-4.15039-4.15039-4.15039h-14.4043v-14.3555c0-2.49023-1.70898-4.19922-4.15039-4.19922-2.39258 0-4.05273 1.70898-4.05273 4.19922v14.3555h-14.3555c-2.49023 0-4.15039 1.70898-4.15039 4.15039Z"/>
  </g>
  <g transform="matrix(0.2 0 0 0.2 304.924 1933)">
   <path d="m74.8535 28.3203c34.8145 0 63.623-28.8086 63.623-63.5742 0-34.8145-28.8574-63.623-63.6719-63.623-34.7656 0-63.5254 28.8086-63.5254 63.623 0 34.7656 28.8086 63.5742 63.5742 63.5742Zm0-9.08203c-30.1758 0-54.4434-24.3164-54.4434-54.4922 0-30.2246 24.2188-54.4922 54.3945-54.4922 30.2246 0 54.541 24.2676 54.541 54.4922 0 30.1758-24.2676 54.4922-54.4922 54.4922Zm-28.8574-54.4922c0 2.58789 1.85547 4.39453 4.58984 4.39453h19.7266v19.7754c0 2.68555 1.85547 4.58984 4.44336 4.58984 2.68555 0 4.54102-1.85547 4.54102-4.58984v-19.7754h19.7754c2.68555 0 4.58984-1.80664 4.58984-4.39453 0-2.73438-1.85547-4.58984-4.58984-4.58984h-19.7754v-19.7266c0-2.73438-1.85547-4.63867-4.54102-4.63867-2.58789 0-4.44336 1.9043-4.44336 4.63867v19.7266h-19.7266c-2.73438 0-4.58984 1.85547-4.58984 4.58984Z"/>
  </g>
  <text style="stroke:none;fill:black;font-family:sans-serif;font-size:13;font-weight:bold;" transform="matrix(1 0 0 1 263 1953)">Design Variations</text>
  <text style="stroke:none;fill:black;font-family:sans-serif;font-size:13;" transform="matrix(1 0 0 1 263 1971)">Symbols are supported in up to nine weights and three scales.</text>
  <text style="stroke:none;fill:black;font-family:sans-serif;font-size:13;" transform="matrix(1 0 0 1 263 1989)">For optimal layout with text and other symbols, vertically align</text>
  <text style="stroke:none;fill:black;font-family:sans-serif;font-size:13;" transform="matrix(1 0 0 1 263 2007)">symbols with the adjacent text.</text>
  <line style="fill:none;stroke:#00AEEF;stroke-width:0.5;opacity:1.0;" x1="776" x2="776" y1="1919" y2="1933"/>
  <g transform="matrix(0.2 0 0 0.2 776 1933)">
   <path d="m16.5527 0.78125c2.58789 0 3.85742-0.976562 4.78516-3.71094l6.29883-17.2363h28.8086l6.29883 17.2363c0.927734 2.73438 2.19727 3.71094 4.73633 3.71094 2.58789 0 4.24805-1.5625 4.24805-4.00391 0-0.830078-0.146484-1.61133-0.537109-2.63672l-22.9004-60.9863c-1.12305-2.97852-3.125-4.49219-6.25-4.49219-3.02734 0-5.07812 1.46484-6.15234 4.44336l-22.9004 61.084c-0.390625 1.02539-0.537109 1.80664-0.537109 2.63672 0 2.44141 1.5625 3.95508 4.10156 3.95508Zm13.4766-28.3691 11.8652-32.8613h0.244141l11.8652 32.8613Z"/>
  </g>
  <line style="fill:none;stroke:#00AEEF;stroke-width:0.5;opacity:1.0;" x1="792.836" x2="792.836" y1="1919" y2="1933"/>
  <text style="stroke:none;fill:black;font-family:sans-serif;font-size:13;font-weight:bold;" transform="matrix(1 0 0 1 776 1953)">Margins</text>
  <text style="stroke:none;fill:black;font-family:sans-serif;font-size:13;" transform="matrix(1 0 0 1 776 1971)">Leading and trailing margins on the left and right side of each symbol</text>
  <text style="stroke:none;fill:black;font-family:sans-serif;font-size:13;" transform="matrix(1 0 0 1 776 1989)">can be adjusted by modifying the x-location of the margin guidelines.</text>
  <text style="stroke:none;fill:black;font-family:sans-serif;font-size:13;" transform="matrix(1 0 0 1 776 2007)">Modifications are automatically applied proportionally to all</text>
  <text style="stroke:none;fill:black;font-family:sans-serif;font-size:13;" transform="matrix(1 0 0 1 776 2025)">scales and weights.</text>
  <g transform="matrix(0.2 0 0 0.2 1289 1933)">
   <path d="m14.209 9.32617 8.49609 8.54492c4.29688 4.3457 9.22852 4.05273 13.8672-1.07422l53.4668-58.9355-4.83398-4.88281-53.0762 58.3984c-1.75781 2.00195-3.41797 2.49023-5.76172 0.146484l-5.85938-5.81055c-2.34375-2.29492-1.80664-4.00391 0.195312-5.81055l57.373-54.0039-4.88281-4.83398-57.959 54.4434c-4.93164 4.58984-5.32227 9.47266-1.02539 13.8184Zm32.0801-90.9668c-2.09961 2.05078-2.24609 4.93164-1.07422 6.88477 1.17188 1.80664 3.4668 2.97852 6.68945 2.14844 7.32422-1.70898 14.9414-2.00195 22.0703 2.68555l-2.92969 7.27539c-1.70898 4.15039-0.830078 7.08008 1.85547 9.81445l11.4746 11.5723c2.44141 2.44141 4.49219 2.53906 7.32422 2.05078l5.32227-0.976562 3.32031 3.36914-0.195312 2.7832c-0.195312 2.49023 0.439453 4.39453 2.88086 6.78711l3.80859 3.71094c2.39258 2.39258 5.46875 2.53906 7.8125 0.195312l14.5508-14.5996c2.34375-2.34375 2.24609-5.32227-0.146484-7.71484l-3.85742-3.80859c-2.39258-2.39258-4.24805-3.17383-6.64062-2.97852l-2.88086 0.244141-3.22266-3.17383 1.2207-5.61523c0.634766-2.83203-0.146484-5.0293-3.07617-7.95898l-10.9863-10.9375c-16.6992-16.6016-38.8672-16.2109-53.3203-1.75781Zm7.4707 1.85547c12.1582-8.88672 28.6133-7.37305 39.7461 3.75977l12.1582 12.0605c1.17188 1.17188 1.36719 2.09961 1.02539 3.80859l-1.61133 7.42188 7.51953 7.42188 4.93164-0.292969c1.26953-0.0488281 1.66016 0.0488281 2.63672 1.02539l2.88086 2.88086-12.207 12.207-2.88086-2.88086c-0.976562-0.976562-1.12305-1.36719-1.07422-2.68555l0.341797-4.88281-7.4707-7.42188-7.61719 1.26953c-1.61133 0.341797-2.34375 0.195312-3.56445-0.976562l-10.0098-10.0098c-1.26953-1.17188-1.41602-2.00195-0.634766-3.85742l4.39453-10.4492c-7.8125-7.27539-17.9688-10.4004-28.125-7.42188-0.78125 0.195312-1.07422-0.439453-0.439453-0.976562Z"/>
  </g>
  <text style="stroke:none;fill:black;font-family:sans-serif;font-size:13;font-weight:bold;" transform="matrix(1 0 0 1 1289 1953)">Exporting</text>
  <text style="stroke:none;fill:black;font-family:sans-serif;font-size:13;" transform="matrix(1 0 0 1 1289 1971)">Symbols should be outlined when exporting to ensure the</text>
  <text style="stroke:none;fill:black;font-family:sans-serif;font-size:13;" transform="matrix(1 0 0 1 1289 1989)">design is preserved when submitting to Xcode.</text>
  <text id="template-version" style="stroke:none;fill:black;font-family:sans-serif;font-size:13;text-anchor:end;" transform="matrix(1 0 0 1 3036 1933)">Template v.5.0</text>
  <text style="stroke:none;fill:black;font-family:sans-serif;font-size:13;text-anchor:end;" transform="matrix(1 0 0 1 3036 1951)">Requires Xcode 15 or greater</text>
  <text id="descriptive-name" style="stroke:none;fill:black;font-family:sans-serif;font-size:13;text-anchor:end;" transform="matrix(1 0 0 1 3036 1969)">Generated from cloud.heavyrain.fill</text>
  <text style="stroke:none;fill:black;font-family:sans-serif;font-size:13;text-anchor:end;" transform="matrix(1 0 0 1 3036 1987)">Typeset at 100.0 points</text>
  <text style="stroke:none;fill:black;font-family:sans-serif;font-size:13;" transform="matrix(1 0 0 1 263 726)">Small</text>
  <text style="stroke:none;fill:black;font-family:sans-serif;font-size:13;" transform="matrix(1 0 0 1 263 1156)">Medium</text>
  <text style="stroke:none;fill:black;font-family:sans-serif;font-size:13;" transform="matrix(1 0 0 1 263 1586)">Large</text>
 </g>
 <g id="Guides">
  <g id="H-reference" style="fill:#27AAE1;stroke:none;" transform="matrix(1 0 0 1 339 696)">
   <path d="M0.993654 0L3.63775 0L29.3281-67.1323L30.0303-67.1323L30.0303-70.459L28.1226-70.459ZM11.6885-24.4799L46.9815-24.4799L46.2315-26.7285L12.4385-26.7285ZM55.1196 0L57.7637 0L30.6382-70.459L29.4326-70.459L29.4326-67.1323Z"/>
  </g>
  <line id="Baseline-S" style="fill:none;stroke:#27AAE1;opacity:1;stroke-width:0.5;" x1="263" x2="3036" y1="696" y2="696"/>
  <line id="Capline-S" style="fill:none;stroke:#27AAE1;opacity:1;stroke-width:0.5;" x1="263" x2="3036" y1="625.541" y2="625.541"/>
  <g id="H-reference" style="fill:#27AAE1;stroke:none;" transform="matrix(1 0 0 1 339 1126)">
   <path d="M0.993654 0L3.63775 0L29.3281-67.1323L30.0303-67.1323L30.0303-70.459L28.1226-70.459ZM11.6885-24.4799L46.9815-24.4799L46.2315-26.7285L12.4385-26.7285ZM55.1196 0L57.7637 0L30.6382-70.459L29.4326-70.459L29.4326-67.1323Z"/>
  </g>
  <line id="Baseline-M" style="fill:none;stroke:#27AAE1;opacity:1;stroke-width:0.5;" x1="263" x2="3036" y1="1126" y2="1126"/>
  <line id="Capline-M" style="fill:none;stroke:#27AAE1;opacity:1;stroke-width:0.5;" x1="263" x2="3036" y1="1055.54" y2="1055.54"/>
  <g id="H-reference" style="fill:#27AAE1;stroke:none;" transform="matrix(1 0 0 1 339 1556)">
   <path d="M0.993654 0L3.63775 0L29.3281-67.1323L30.0303-67.1323L30.0303-70.459L28.1226-70.459ZM11.6885-24.4799L46.9815-24.4799L46.2315-26.7285L12.4385-26.7285ZM55.1196 0L57.7637 0L30.6382-70.459L29.4326-70.459L29.4326-67.1323Z"/>
  </g>
  <line id="Baseline-L" style="fill:none;stroke:#27AAE1;opacity:1;stroke-width:0.5;" x1="263" x2="3036" y1="1556" y2="1556"/>
  <line id="Capline-L" style="fill:none;stroke:#27AAE1;opacity:1;stroke-width:0.5;" x1="263" x2="3036" y1="1485.54" y2="1485.54"/>
  <line id="left-margin-Ultralight-S" style="fill:none;stroke:#00AEEF;stroke-width:0.5;opacity:1.0;" x1="512.046" x2="512.046" y1="600.785" y2="720.121"/>
  <line id="right-margin-Ultralight-S" style="fill:none;stroke:#00AEEF;stroke-width:0.5;opacity:1.0;" x1="607.376" x2="607.376" y1="600.785" y2="720.121"/>
  <line id="left-margin-Regular-S" style="fill:none;stroke:#00AEEF;stroke-width:0.5;opacity:1.0;" x1="1401.09" x2="1401.09" y1="600.785" y2="720.121"/>
  <line id="right-margin-Regular-S" style="fill:none;stroke:#00AEEF;stroke-width:0.5;opacity:1.0;" x1="1498.6" x2="1498.6" y1="600.785" y2="720.121"/>
  <line id="left-margin-Black-S" style="fill:none;stroke:#00AEEF;stroke-width:0.5;opacity:1.0;" x1="2881.11" x2="2881.11" y1="600.785" y2="720.121"/>
  <line id="right-margin-Black-S" style="fill:none;stroke:#00AEEF;stroke-width:0.5;opacity:1.0;" x1="2985.69" x2="2985.69" y1="600.785" y2="720.121"/>
 </g>
 <g id="Symbols">
  <g id="Black-S" transform="matrix(1 0 0 1 2881.11 696)">
   <path class="monochrome-0 multicolor-0:systemCyanColor hierarchical-0:secondary SFSymbolsPreviewWireframe" d="M69.6289 14.3066L80.6641-4.6875C81.5918-6.29883 81.2012-8.39844 79.4922-9.375C77.7832-10.3516 75.8789-9.66797 74.9023-7.95898L63.8672 11.0352C62.9395 12.6465 63.2812 14.6973 64.9902 15.6738C66.6992 16.6504 68.7012 15.918 69.6289 14.3066Z"/>
   <path class="monochrome-1 multicolor-1:systemCyanColor hierarchical-1:secondary SFSymbolsPreviewWireframe" d="M54.2969 14.3555L65.332-4.63867C66.2598-6.25 65.8691-8.34961 64.1602-9.32617C62.4512-10.3027 60.5469-9.61914 59.5703-7.91016L48.5352 11.084C47.6074 12.6953 47.9492 14.7461 49.6582 15.7227C51.3672 16.6992 53.3691 15.9668 54.2969 14.3555Z"/>
   <path class="monochrome-2 multicolor-2:systemCyanColor hierarchical-2:secondary SFSymbolsPreviewWireframe" d="M39.1602 14.3066L50.1953-4.6875C51.123-6.29883 50.7324-8.39844 49.0234-9.375C47.3145-10.3516 45.4102-9.66797 44.4336-7.95898L33.3984 11.0352C32.4707 12.6465 32.8125 14.6973 34.5215 15.6738C36.2305 16.6504 38.2324 15.918 39.1602 14.3066Z"/>
   <path class="monochrome-3 multicolor-3:systemCyanColor hierarchical-3:secondary SFSymbolsPreviewWireframe" d="M23.8281 14.3555L34.8633-4.63867C35.791-6.25 35.4004-8.34961 33.6914-9.32617C31.9824-10.3027 30.0781-9.61914 29.1016-7.91016L18.0664 11.084C17.1387 12.6953 17.4805 14.7461 19.1895 15.7227C20.8984 16.6992 22.9004 15.9668 23.8281 14.3555Z"/>
   <path class="monochrome-4 multicolor-4:white hierarchical-4:primary SFSymbolsPreviewWireframe" d="M28.1738-17.6758L76.8066-17.6758C90.8691-17.6758 101.66-28.418 101.66-42.1875C101.66-56.0059 91.1621-66.9434 77.1484-66.9434C72.8516-75.1465 64.8926-82.2266 50.5371-82.2266C34.5215-82.2266 22.4609-70.9961 20.1172-56.543C12.5488-53.7598 6.83594-47.1191 6.83594-37.9883C6.83594-26.4648 15.5762-17.6758 28.1738-17.6758Z"/>
  </g>
  <g id="Regular-S" transform="matrix(1 0 0 1 1401.09 696)">
   <path class="monochrome-0 multicolor-0:systemCyanColor hierarchical-0:secondary SFSymbolsPreviewWireframe" d="M63.9648 7.4707L75-11.6699C75.7324-12.9395 75.3418-14.4531 74.0723-15.1367C72.8027-15.8203 71.2891-15.5273 70.5566-14.209L59.6191 4.83398C58.8379 6.15234 59.2285 7.66602 60.498 8.39844C61.6699 9.13086 63.2812 8.69141 63.9648 7.4707Z"/>
   <path class="monochrome-1 multicolor-1:systemCyanColor hierarchical-1:secondary SFSymbolsPreviewWireframe" d="M48.8281 7.42188L59.8145-11.5723C60.5957-12.9395 60.1562-14.4043 58.8867-15.1367C57.5684-15.8691 56.1035-15.5273 55.3223-14.1602L44.3359 4.93164C43.6523 6.15234 43.9941 7.66602 45.3125 8.39844C46.582 9.13086 48.1445 8.69141 48.8281 7.42188Z"/>
   <path class="monochrome-2 multicolor-2:systemCyanColor hierarchical-2:secondary SFSymbolsPreviewWireframe" d="M33.5938 7.42188L44.5801-11.5723C45.3613-12.9395 44.9219-14.4043 43.6523-15.1367C42.334-15.8691 40.8691-15.5273 40.0879-14.1602L29.1016 4.93164C28.418 6.15234 28.7598 7.66602 30.0781 8.39844C31.3477 9.13086 32.9102 8.69141 33.5938 7.42188Z"/>
   <path class="monochrome-3 multicolor-3:systemCyanColor hierarchical-3:secondary SFSymbolsPreviewWireframe" d="M18.3594 7.42188L29.3457-11.5723C30.127-12.9395 29.6875-14.4043 28.418-15.1367C27.0996-15.8691 25.6348-15.5273 24.8535-14.1602L13.8672 4.93164C13.1836 6.15234 13.5254 7.66602 14.8438 8.39844C16.1133 9.13086 17.6758 8.69141 18.3594 7.42188Z"/>
   <path class="monochrome-4 multicolor-4:white hierarchical-4:primary SFSymbolsPreviewWireframe" d="M25.1465-21.1914L72.4609-21.1914C85.2051-21.1914 94.5801-30.8594 94.5801-42.7734C94.5801-55.1758 84.5215-64.209 71.4355-64.209C66.6504-73.584 57.6172-79.5898 46.7285-79.5898C32.1777-79.5898 20.166-68.3105 18.8965-54.1016C12.0117-52.0996 6.83594-45.9473 6.83594-37.8418C6.83594-28.6133 13.5254-21.1914 25.1465-21.1914Z"/>
  </g>
  <g id="Ultralight-S" transform="matrix(1 0 0 1 512.046 696)">
   <path class="monochrome-0 multicolor-0:systemCyanColor hierarchical-0:secondary SFSymbolsPreviewWireframe" d="M61.9668 8.69677L74.3643-12.7598C74.7788-13.3936 74.6152-13.999 74.0723-14.3193C73.5747-14.5488 73.0146-14.3921 72.6001-13.7549L60.2095 7.64939C59.8369 8.33201 59.9551 8.93749 60.498 9.21581C61.0342 9.53955 61.6011 9.32714 61.9668 8.69677Z"/>
   <path class="monochrome-1 multicolor-1:systemCyanColor hierarchical-1:secondary SFSymbolsPreviewWireframe" d="M46.6939 8.69335L59.0879-12.7529C59.4605-13.3936 59.3389-13.9956 58.7959-14.3193C58.2949-14.5523 57.7383-14.3921 57.3203-13.7515L44.9263 7.65623C44.5605 8.33201 44.6753 8.93749 45.2217 9.21581C45.7647 9.53955 46.3281 9.32714 46.6939 8.69335Z"/>
   <path class="monochrome-2 multicolor-2:systemCyanColor hierarchical-2:secondary SFSymbolsPreviewWireframe" d="M31.5049 8.69335L43.8989-12.7529C44.2715-13.3936 44.1499-13.9956 43.6069-14.3193C43.106-14.5523 42.5493-14.3921 42.1313-13.7515L29.7373 7.65623C29.3716 8.33201 29.4863 8.93749 30.0327 9.21581C30.5757 9.53955 31.1392 9.32714 31.5049 8.69335Z"/>
   <path class="monochrome-3 multicolor-3:systemCyanColor hierarchical-3:secondary SFSymbolsPreviewWireframe" d="M16.2251 8.69335L28.6191-12.7529C28.9917-13.3936 28.8701-13.9956 28.3271-14.3193C27.8262-14.5523 27.2695-14.3921 26.8515-13.7515L14.4575 7.65623C14.0918 8.33201 14.2065 8.93749 14.7529 9.21581C15.2959 9.53955 15.8594 9.32714 16.2251 8.69335Z"/>
   <path class="monochrome-4 multicolor-4:white hierarchical-4:primary SFSymbolsPreviewWireframe" d="M23.3755-20.7827L71.5982-20.7827C83.2979-20.7827 92.4004-29.5879 92.4004-40.6846C92.4004-51.9517 82.8867-60.3037 70.5728-60.3037C65.7876-70.1782 57.6172-76.5928 45.8657-76.5928C32.1777-76.5928 20.938-65.3135 19.7593-51.1045C12.602-49.2388 6.83594-43.6768 6.83594-35.7075C6.83594-27.5234 12.9351-20.7827 23.3755-20.7827Z"/>
  </g>
 </g>
</svg>
