<?xml version="1.0" encoding="UTF-8"?>
<!--Generator: Apple Native CoreSVG 232.5-->
<!DOCTYPE svg
PUBLIC "-//W3C//DTD SVG 1.1//EN"
       "http://www.w3.org/Graphics/SVG/1.1/DTD/svg11.dtd">
<svg version="1.1" xmlns="http://www.w3.org/2000/svg" xmlns:xlink="http://www.w3.org/1999/xlink" width="3300" height="2200">
 <!--glyph: "uni1001E5.medium", point size: 100.0, font version: "19.0d8e1", template writer version: "128"-->
 <style>.monochrome-0 {-sfsymbols-motion-group:0}

.multicolor-0:white {-sfsymbols-motion-group:0}

.hierarchical-0:primary {-sfsymbols-motion-group:0}

.SFSymbolsPreviewWireframe {fill:none;opacity:1.0;stroke:black;stroke-width:0.5}
</style>
 <g id="Notes">
  <rect height="2200" id="artboard" style="fill:white;opacity:1" width="3300" x="0" y="0"/>
  <line style="fill:none;stroke:black;opacity:1;stroke-width:0.5;" x1="263" x2="3036" y1="292" y2="292"/>
  <text style="stroke:none;fill:black;font-family:sans-serif;font-size:13;font-weight:bold;" transform="matrix(1 0 0 1 263 322)">Weight/Scale Variations</text>
  <text style="stroke:none;fill:black;font-family:sans-serif;font-size:13;text-anchor:middle;" transform="matrix(1 0 0 1 559.711 322)">Ultralight</text>
  <text style="stroke:none;fill:black;font-family:sans-serif;font-size:13;text-anchor:middle;" transform="matrix(1 0 0 1 856.422 322)">Thin</text>
  <text style="stroke:none;fill:black;font-family:sans-serif;font-size:13;text-anchor:middle;" transform="matrix(1 0 0 1 1153.13 322)">Light</text>
  <text style="stroke:none;fill:black;font-family:sans-serif;font-size:13;text-anchor:middle;" transform="matrix(1 0 0 1 1449.84 322)">Regular</text>
  <text style="stroke:none;fill:black;font-family:sans-serif;font-size:13;text-anchor:middle;" transform="matrix(1 0 0 1 1746.56 322)">Medium</text>
  <text style="stroke:none;fill:black;font-family:sans-serif;font-size:13;text-anchor:middle;" transform="matrix(1 0 0 1 2043.27 322)">Semibold</text>
  <text style="stroke:none;fill:black;font-family:sans-serif;font-size:13;text-anchor:middle;" transform="matrix(1 0 0 1 2339.98 322)">Bold</text>
  <text style="stroke:none;fill:black;font-family:sans-serif;font-size:13;text-anchor:middle;" transform="matrix(1 0 0 1 2636.69 322)">Heavy</text>
  <text style="stroke:none;fill:black;font-family:sans-serif;font-size:13;text-anchor:middle;" transform="matrix(1 0 0 1 2933.4 322)">Black</text>
  <line style="fill:none;stroke:black;opacity:1;stroke-width:0.5;" x1="263" x2="3036" y1="1903" y2="1903"/>
  <g transform="matrix(0.2 0 0 0.2 263 1933)">
   <path d="m46.2402 4.15039c21.5332 0 39.4531-17.8711 39.4531-39.4043s-17.9688-39.4043-39.502-39.4043c-21.4844 0-39.3555 17.8711-39.3555 39.4043s17.9199 39.4043 39.4043 39.4043Zm0-7.42188c-17.7246 0-31.8848-14.209-31.8848-31.9824s14.1113-31.9824 31.8359-31.9824c17.7734 0 32.0312 14.209 32.0312 31.9824s-14.209 31.9824-31.9824 31.9824Zm-17.9688-31.9824c0 2.14844 1.51367 3.61328 3.75977 3.61328h10.498v10.5957c0 2.19727 1.46484 3.71094 3.61328 3.71094 2.24609 0 3.71094-1.51367 3.71094-3.71094v-10.5957h10.5957c2.19727 0 3.71094-1.46484 3.71094-3.61328 0-2.19727-1.51367-3.71094-3.71094-3.71094h-10.5957v-10.5469c0-2.24609-1.46484-3.75977-3.71094-3.75977-2.14844 0-3.61328 1.51367-3.61328 3.75977v10.5469h-10.498c-2.24609 0-3.75977 1.51367-3.75977 3.71094Z"/>
  </g>
  <g transform="matrix(0.2 0 0 0.2 281.506 1933)">
   <path d="m58.5449 14.5508c27.2461 0 49.8047-22.6074 49.8047-49.8047 0-27.2461-22.6074-49.8047-49.8535-49.8047-27.1973 0-49.7559 22.5586-49.7559 49.8047 0 27.1973 22.6074 49.8047 49.8047 49.8047Zm0-8.30078c-23.0469 0-41.4551-18.457-41.4551-41.5039s18.3594-41.5039 41.4062-41.5039 41.5527 18.457 41.5527 41.5039-18.457 41.5039-41.5039 41.5039Zm-22.6562-41.5039c0 2.39258 1.66016 4.00391 4.15039 4.00391h14.3555v14.4043c0 2.44141 1.66016 4.15039 4.05273 4.15039 2.44141 0 4.15039-1.66016 4.15039-4.15039v-14.4043h14.4043c2.44141 0 4.15039-1.61133 4.15039-4.00391 0-2.44141-1.70898-4.15039-4.15039-4.15039h-14.4043v-14.3555c0-2.49023-1.70898-4.19922-4.15039-4.19922-2.39258 0-4.05273 1.70898-4.05273 4.19922v14.3555h-14.3555c-2.49023 0-4.15039 1.70898-4.15039 4.15039Z"/>
  </g>
  <g transform="matrix(0.2 0 0 0.2 304.924 1933)">
   <path d="m74.8535 28.3203c34.8145 0 63.623-28.8086 63.623-63.5742 0-34.8145-28.8574-63.623-63.6719-63.623-34.7656 0-63.5254 28.8086-63.5254 63.623 0 34.7656 28.8086 63.5742 63.5742 63.5742Zm0-9.08203c-30.1758 0-54.4434-24.3164-54.4434-54.4922 0-30.2246 24.2188-54.4922 54.3945-54.4922 30.2246 0 54.541 24.2676 54.541 54.4922 0 30.1758-24.2676 54.4922-54.4922 54.4922Zm-28.8574-54.4922c0 2.58789 1.85547 4.39453 4.58984 4.39453h19.7266v19.7754c0 2.68555 1.85547 4.58984 4.44336 4.58984 2.68555 0 4.54102-1.85547 4.54102-4.58984v-19.7754h19.7754c2.68555 0 4.58984-1.80664 4.58984-4.39453 0-2.73438-1.85547-4.58984-4.58984-4.58984h-19.7754v-19.7266c0-2.73438-1.85547-4.63867-4.54102-4.63867-2.58789 0-4.44336 1.9043-4.44336 4.63867v19.7266h-19.7266c-2.73438 0-4.58984 1.85547-4.58984 4.58984Z"/>
  </g>
  <text style="stroke:none;fill:black;font-family:sans-serif;font-size:13;font-weight:bold;" transform="matrix(1 0 0 1 263 1953)">Design Variations</text>
  <text style="stroke:none;fill:black;font-family:sans-serif;font-size:13;" transform="matrix(1 0 0 1 263 1971)">Symbols are supported in up to nine weights and three scales.</text>
  <text style="stroke:none;fill:black;font-family:sans-serif;font-size:13;" transform="matrix(1 0 0 1 263 1989)">For optimal layout with text and other symbols, vertically align</text>
  <text style="stroke:none;fill:black;font-family:sans-serif;font-size:13;" transform="matrix(1 0 0 1 263 2007)">symbols with the adjacent text.</text>
  <line style="fill:none;stroke:#00AEEF;stroke-width:0.5;opacity:1.0;" x1="776" x2="776" y1="1919" y2="1933"/>
  <g transform="matrix(0.2 0 0 0.2 776 1933)">
   <path d="m16.5527 0.78125c2.58789 0 3.85742-0.976562 4.78516-3.71094l6.29883-17.2363h28.8086l6.29883 17.2363c0.927734 2.73438 2.19727 3.71094 4.73633 3.71094 2.58789 0 4.24805-1.5625 4.24805-4.00391 0-0.830078-0.146484-1.61133-0.537109-2.63672l-22.9004-60.9863c-1.12305-2.97852-3.125-4.49219-6.25-4.49219-3.02734 0-5.07812 1.46484-6.15234 4.44336l-22.9004 61.084c-0.390625 1.02539-0.537109 1.80664-0.537109 2.63672 0 2.44141 1.5625 3.95508 4.10156 3.95508Zm13.4766-28.3691 11.8652-32.8613h0.244141l11.8652 32.8613Z"/>
  </g>
  <line style="fill:none;stroke:#00AEEF;stroke-width:0.5;opacity:1.0;" x1="792.836" x2="792.836" y1="1919" y2="1933"/>
  <text style="stroke:none;fill:black;font-family:sans-serif;font-size:13;font-weight:bold;" transform="matrix(1 0 0 1 776 1953)">Margins</text>
  <text style="stroke:none;fill:black;font-family:sans-serif;font-size:13;" transform="matrix(1 0 0 1 776 1971)">Leading and trailing margins on the left and right side of each symbol</text>
  <text style="stroke:none;fill:black;font-family:sans-serif;font-size:13;" transform="matrix(1 0 0 1 776 1989)">can be adjusted by modifying the x-location of the margin guidelines.</text>
  <text style="stroke:none;fill:black;font-family:sans-serif;font-size:13;" transform="matrix(1 0 0 1 776 2007)">Modifications are automatically applied proportionally to all</text>
  <text style="stroke:none;fill:black;font-family:sans-serif;font-size:13;" transform="matrix(1 0 0 1 776 2025)">scales and weights.</text>
  <g transform="matrix(0.2 0 0 0.2 1289 1933)">
   <path d="m14.209 9.32617 8.49609 8.54492c4.29688 4.3457 9.22852 4.05273 13.8672-1.07422l53.4668-58.9355-4.83398-4.88281-53.0762 58.3984c-1.75781 2.00195-3.41797 2.49023-5.76172 0.146484l-5.85938-5.81055c-2.34375-2.29492-1.80664-4.00391 0.195312-5.81055l57.373-54.0039-4.88281-4.83398-57.959 54.4434c-4.93164 4.58984-5.32227 9.47266-1.02539 13.8184Zm32.0801-90.9668c-2.09961 2.05078-2.24609 4.93164-1.07422 6.88477 1.17188 1.80664 3.4668 2.97852 6.68945 2.14844 7.32422-1.70898 14.9414-2.00195 22.0703 2.68555l-2.92969 7.27539c-1.70898 4.15039-0.830078 7.08008 1.85547 9.81445l11.4746 11.5723c2.44141 2.44141 4.49219 2.53906 7.32422 2.05078l5.32227-0.976562 3.32031 3.36914-0.195312 2.7832c-0.195312 2.49023 0.439453 4.39453 2.88086 6.78711l3.80859 3.71094c2.39258 2.39258 5.46875 2.53906 7.8125 0.195312l14.5508-14.5996c2.34375-2.34375 2.24609-5.32227-0.146484-7.71484l-3.85742-3.80859c-2.39258-2.39258-4.24805-3.17383-6.64062-2.97852l-2.88086 0.244141-3.22266-3.17383 1.2207-5.61523c0.634766-2.83203-0.146484-5.0293-3.07617-7.95898l-10.9863-10.9375c-16.6992-16.6016-38.8672-16.2109-53.3203-1.75781Zm7.4707 1.85547c12.1582-8.88672 28.6133-7.37305 39.7461 3.75977l12.1582 12.0605c1.17188 1.17188 1.36719 2.09961 1.02539 3.80859l-1.61133 7.42188 7.51953 7.42188 4.93164-0.292969c1.26953-0.0488281 1.66016 0.0488281 2.63672 1.02539l2.88086 2.88086-12.207 12.207-2.88086-2.88086c-0.976562-0.976562-1.12305-1.36719-1.07422-2.68555l0.341797-4.88281-7.4707-7.42188-7.61719 1.26953c-1.61133 0.341797-2.34375 0.195312-3.56445-0.976562l-10.0098-10.0098c-1.26953-1.17188-1.41602-2.00195-0.634766-3.85742l4.39453-10.4492c-7.8125-7.27539-17.9688-10.4004-28.125-7.42188-0.78125 0.195312-1.07422-0.439453-0.439453-0.976562Z"/>
  </g>
  <text style="stroke:none;fill:black;font-family:sans-serif;font-size:13;font-weight:bold;" transform="matrix(1 0 0 1 1289 1953)">Exporting</text>
  <text style="stroke:none;fill:black;font-family:sans-serif;font-size:13;" transform="matrix(1 0 0 1 1289 1971)">Symbols should be outlined when exporting to ensure the</text>
  <text style="stroke:none;fill:black;font-family:sans-serif;font-size:13;" transform="matrix(1 0 0 1 1289 1989)">design is preserved when submitting to Xcode.</text>
  <text id="template-version" style="stroke:none;fill:black;font-family:sans-serif;font-size:13;text-anchor:end;" transform="matrix(1 0 0 1 3036 1933)">Template v.5.0</text>
  <text style="stroke:none;fill:black;font-family:sans-serif;font-size:13;text-anchor:end;" transform="matrix(1 0 0 1 3036 1951)">Requires Xcode 15 or greater</text>
  <text id="descriptive-name" style="stroke:none;fill:black;font-family:sans-serif;font-size:13;text-anchor:end;" transform="matrix(1 0 0 1 3036 1969)">Generated from snowflake</text>
  <text style="stroke:none;fill:black;font-family:sans-serif;font-size:13;text-anchor:end;" transform="matrix(1 0 0 1 3036 1987)">Typeset at 100.0 points</text>
  <text style="stroke:none;fill:black;font-family:sans-serif;font-size:13;" transform="matrix(1 0 0 1 263 726)">Small</text>
  <text style="stroke:none;fill:black;font-family:sans-serif;font-size:13;" transform="matrix(1 0 0 1 263 1156)">Medium</text>
  <text style="stroke:none;fill:black;font-family:sans-serif;font-size:13;" transform="matrix(1 0 0 1 263 1586)">Large</text>
 </g>
 <g id="Guides">
  <g id="H-reference" style="fill:#27AAE1;stroke:none;" transform="matrix(1 0 0 1 339 696)">
   <path d="M0.993654 0L3.63775 0L29.3281-67.1323L30.0303-67.1323L30.0303-70.459L28.1226-70.459ZM11.6885-24.4799L46.9815-24.4799L46.2315-26.7285L12.4385-26.7285ZM55.1196 0L57.7637 0L30.6382-70.459L29.4326-70.459L29.4326-67.1323Z"/>
  </g>
  <line id="Baseline-S" style="fill:none;stroke:#27AAE1;opacity:1;stroke-width:0.5;" x1="263" x2="3036" y1="696" y2="696"/>
  <line id="Capline-S" style="fill:none;stroke:#27AAE1;opacity:1;stroke-width:0.5;" x1="263" x2="3036" y1="625.541" y2="625.541"/>
  <g id="H-reference" style="fill:#27AAE1;stroke:none;" transform="matrix(1 0 0 1 339 1126)">
   <path d="M0.993654 0L3.63775 0L29.3281-67.1323L30.0303-67.1323L30.0303-70.459L28.1226-70.459ZM11.6885-24.4799L46.9815-24.4799L46.2315-26.7285L12.4385-26.7285ZM55.1196 0L57.7637 0L30.6382-70.459L29.4326-70.459L29.4326-67.1323Z"/>
  </g>
  <line id="Baseline-M" style="fill:none;stroke:#27AAE1;opacity:1;stroke-width:0.5;" x1="263" x2="3036" y1="1126" y2="1126"/>
  <line id="Capline-M" style="fill:none;stroke:#27AAE1;opacity:1;stroke-width:0.5;" x1="263" x2="3036" y1="1055.54" y2="1055.54"/>
  <g id="H-reference" style="fill:#27AAE1;stroke:none;" transform="matrix(1 0 0 1 339 1556)">
   <path d="M0.993654 0L3.63775 0L29.3281-67.1323L30.0303-67.1323L30.0303-70.459L28.1226-70.459ZM11.6885-24.4799L46.9815-24.4799L46.2315-26.7285L12.4385-26.7285ZM55.1196 0L57.7637 0L30.6382-70.459L29.4326-70.459L29.4326-67.1323Z"/>
  </g>
  <line id="Baseline-L" style="fill:none;stroke:#27AAE1;opacity:1;stroke-width:0.5;" x1="263" x2="3036" y1="1556" y2="1556"/>
  <line id="Capline-L" style="fill:none;stroke:#27AAE1;opacity:1;stroke-width:0.5;" x1="263" x2="3036" y1="1485.54" y2="1485.54"/>
  <line id="left-margin-Ultralight-S" style="fill:none;stroke:#00AEEF;stroke-width:0.5;opacity:1.0;" x1="520.531" x2="520.531" y1="600.785" y2="720.121"/>
  <line id="right-margin-Ultralight-S" style="fill:none;stroke:#00AEEF;stroke-width:0.5;opacity:1.0;" x1="598.891" x2="598.891" y1="600.785" y2="720.121"/>
  <line id="left-margin-Regular-S" style="fill:none;stroke:#00AEEF;stroke-width:0.5;opacity:1.0;" x1="1408.78" x2="1408.78" y1="600.785" y2="720.121"/>
  <line id="right-margin-Regular-S" style="fill:none;stroke:#00AEEF;stroke-width:0.5;opacity:1.0;" x1="1490.91" x2="1490.91" y1="600.785" y2="720.121"/>
  <line id="left-margin-Black-S" style="fill:none;stroke:#00AEEF;stroke-width:0.5;opacity:1.0;" x1="2889.58" x2="2889.58" y1="600.785" y2="720.121"/>
  <line id="right-margin-Black-S" style="fill:none;stroke:#00AEEF;stroke-width:0.5;opacity:1.0;" x1="2977.22" x2="2977.22" y1="600.785" y2="720.121"/>
 </g>
 <g id="Symbols">
  <g id="Black-S" transform="matrix(1 0 0 1 2889.58 696)">
   <path class="monochrome-0 multicolor-0:white hierarchical-0:primary SFSymbolsPreviewWireframe" d="M43.7988 6.64062C46.7773 6.64062 48.7305 4.54102 48.7305 1.41602L48.7305-4.39453L50.8301-2.29492C52.832-0.292969 55.5176-0.244141 57.2266-2.39258C58.6914-4.3457 58.5449-6.88477 56.2012-8.44727L48.7305-13.3301L48.7305-17.4805L47.6562-28.418L56.7383-22.0215L60.2539-19.9707L60.791-11.1328C60.9863-8.30078 63.1348-6.93359 65.5273-7.27539C68.2617-7.61719 69.5312-9.96094 68.8477-12.6465L68.0664-15.4785L73.0957-12.5977C75.7812-11.0352 78.6133-11.7188 80.0293-14.3066C81.4453-16.8457 80.6641-19.6777 78.0273-21.1914L73.0469-24.1211L75.8789-24.8535C78.5156-25.5371 79.9805-27.8809 78.9062-30.4688C77.9785-32.666 75.7324-33.7891 73.1934-32.5684L65.2344-28.6133L61.6699-30.6641L51.6113-35.2539L61.6699-39.8438L65.2344-41.8945L73.1934-37.8906C75.7324-36.6211 77.9785-37.8418 78.9551-40.0879C80.0293-42.5781 78.5645-44.9219 75.8789-45.6543L73.0469-46.3867L78.0273-49.3164C80.7129-50.8789 81.4941-53.6133 80.0781-56.1523C78.6133-58.6914 75.7324-59.4238 73.0957-57.9102L68.0664-55.0293L68.8477-57.8125C69.5801-60.5469 68.2617-62.9395 65.5273-63.2324C63.1836-63.5254 60.9863-62.1582 60.791-59.375L60.2539-50.4395L56.7383-48.3887L47.6562-41.9922L48.7305-53.0273L48.7305-57.1777L56.2012-62.0605C58.5449-63.623 58.6426-66.1621 57.2266-68.1152C55.5664-70.2637 52.832-70.2148 50.8301-68.2129L48.7305-66.1133L48.7305-71.9238C48.7305-75.0488 46.7773-77.1484 43.7988-77.1484C40.8691-77.1484 38.8672-75 38.8672-71.9238L38.8672-66.1133L36.7676-68.2129C34.7656-70.2148 32.0801-70.2637 30.3711-68.1152C28.9062-66.1621 29.0527-63.623 31.3965-62.0605L38.8672-57.1777L38.8672-53.0273L39.9414-41.9434L30.8594-48.3887L27.3438-50.4883L26.8066-59.375C26.6113-62.1582 24.4141-63.5254 22.0703-63.2324C19.3359-62.9395 18.0664-60.498 18.75-57.8613L19.5312-55.0293L14.502-57.9102C11.8652-59.4238 8.98438-58.6914 7.51953-56.1523C6.10352-53.6133 6.88477-50.8301 9.52148-49.3164L14.5508-46.3867L11.7188-45.6543C9.0332-44.9219 7.61719-42.5293 8.69141-40.0391C9.66797-37.8418 11.8652-36.6211 14.4043-37.8906L22.3145-41.8945L25.9277-39.8438L35.9863-35.2539L25.9277-30.6641L22.3633-28.6133L14.4043-32.6172C11.8652-33.8867 9.61914-32.666 8.64258-30.4199C7.56836-27.9297 9.0332-25.5859 11.7188-24.8535L14.5508-24.1211L9.57031-21.1914C6.93359-19.6777 6.05469-16.8457 7.51953-14.3066C8.98438-11.7188 11.8164-11.0352 14.502-12.5977L19.5312-15.4785L18.75-12.6953C18.0176-9.96094 19.3359-7.56836 22.0703-7.27539C24.4629-6.98242 26.6113-8.34961 26.8066-11.1328L27.3438-20.0684L30.8594-22.1191L39.9414-28.5156L38.8672-17.4805L38.8672-13.3301L31.3965-8.44727C29.0527-6.88477 28.9551-4.3457 30.3711-2.39258C32.0312-0.244141 34.7656-0.292969 36.7676-2.29492L38.8672-4.39453L38.8672 1.41602C38.8672 4.49219 40.8691 6.64062 43.7988 6.64062Z"/>
  </g>
  <g id="Regular-S" transform="matrix(1 0 0 1 1408.78 696)">
   <path class="monochrome-0 multicolor-0:white hierarchical-0:primary SFSymbolsPreviewWireframe" d="M41.0645 3.75977C43.0176 3.75977 44.1406 2.44141 44.1406 0.537109L44.1406-6.88477L50-3.61328C51.6113-2.68555 53.2715-2.83203 54.1992-4.44336C54.9316-5.81055 54.4922-7.4707 52.832-8.44727L44.1406-13.3301L44.1406-17.5293L43.2129-31.4941L54.9316-23.7305L58.5449-21.6309L58.4473-11.6699C58.4473-9.76562 59.6191-8.44727 61.1816-8.44727C63.0859-8.44727 64.0137-9.81445 64.0137-11.6699L64.0625-18.5059L70.6055-14.6973C72.2168-13.7207 73.877-14.1113 74.8047-15.7227C75.7324-17.3828 75.2441-19.0918 73.6328-20.0195L67.1387-23.7305L72.998-27.1973C74.5605-28.125 75.2441-29.6387 74.3652-31.2012C73.5352-32.6172 71.7773-32.959 70.166-32.0312L61.6211-26.9531L57.959-29.0527L45.3613-35.2539L57.959-41.4551L61.5723-43.5547L70.166-38.4766C71.7773-37.5488 73.584-37.8906 74.3652-39.2578C75.2441-40.8691 74.5605-42.3828 72.998-43.3105L67.1387-46.7773L73.6328-50.4883C75.293-51.4648 75.7812-53.0762 74.8047-54.7852C73.9258-56.3477 72.2656-56.7383 70.6055-55.8105L64.0625-52.0996L64.0137-58.8867C64.0137-60.6934 63.0859-62.0605 61.2305-62.0605C59.6191-62.0605 58.4473-60.7422 58.4473-58.8867L58.5449-48.9258L54.9316-46.7773L43.2129-39.0137L44.1406-53.0273L44.1406-57.1777L52.832-62.0605C54.4922-63.0371 54.9316-64.6973 54.1992-66.0645C53.2715-67.6758 51.6113-67.8223 50-66.9434L44.1406-63.623L44.1406-71.0449C44.1406-72.9492 43.0176-74.2676 41.0645-74.2676C39.2578-74.2676 38.0371-72.9492 38.0371-71.0449L38.0371-63.623L32.0801-66.9434C30.4688-67.8223 28.9062-67.6758 27.9297-66.0645C27.1484-64.6973 27.6855-63.0371 29.2969-62.1094L38.0371-57.1777L38.0371-53.0273L38.916-39.0137L27.2461-46.7773L23.584-48.9258L23.6816-58.8867C23.6816-60.7422 22.5098-62.0605 20.9473-62.0605C19.0918-62.0605 18.1152-60.6934 18.1152-58.8867L18.0664-52.0996L11.5723-55.8105C9.96094-56.6895 8.20312-56.3477 7.32422-54.7852C6.34766-53.0762 6.88477-51.416 8.49609-50.4883L14.9902-46.7773L9.13086-43.3105C7.56836-42.3828 6.88477-40.9668 7.76367-39.2578C8.54492-37.8906 10.3027-37.5488 11.9629-38.4766L20.5566-43.5059L24.1699-41.4551L36.7676-35.2539L24.1699-29.0527L20.5566-26.9531L11.9629-32.0312C10.3516-32.959 8.59375-32.6172 7.86133-31.25C6.93359-29.541 7.56836-28.125 9.13086-27.1973L14.9902-23.7305L8.49609-20.0195C6.88477-19.0918 6.39648-17.334 7.32422-15.7227C8.25195-14.1113 9.96094-13.8184 11.5723-14.6973L18.0664-18.4082L18.1152-11.6699C18.1152-9.81445 19.0918-8.44727 20.9473-8.44727C22.5098-8.44727 23.6816-9.76562 23.6816-11.6699L23.6328-21.6309L27.2461-23.6816L38.916-31.4941L38.0371-17.5293L38.0371-13.3301L29.2969-8.44727C27.6855-7.4707 27.1484-5.81055 27.9297-4.44336C28.9062-2.83203 30.4688-2.68555 32.0801-3.61328L38.0371-6.88477L38.0371 0.537109C38.0371 2.44141 39.2578 3.75977 41.0645 3.75977Z"/>
  </g>
  <g id="Ultralight-S" transform="matrix(1 0 0 1 520.531 696)">
   <path class="monochrome-0 multicolor-0:white hierarchical-0:primary SFSymbolsPreviewWireframe" d="M39.1572 1.89796C39.7481 1.89796 40.0992 1.4878 40.0992 0.764158L40.0992-11.3803L49.8184-5.70213C50.4307-5.36472 50.9556-5.4658 51.293-5.98729C51.5713-6.44628 51.4043-6.9712 50.7886-7.26661L40.0992-13.4209L40.0992-21.3437L39.9434-33.7646L50.7993-27.4541L57.6367-23.5835L57.6299-11.2612C57.6299-10.5376 58.0298-10.1274 58.5479-10.1274C59.0899-10.1274 59.4273-10.541 59.4273-11.2612L59.4307-22.5019L69.9243-16.4228C70.582-16.082 71.107-16.2002 71.3535-16.6763C71.6001-17.2012 71.4297-17.6841 70.8628-18.0215L60.3272-24.0483L70.1826-29.831C70.7915-30.1684 70.9302-30.6377 70.6416-31.1104C70.2657-31.6182 69.8701-31.6875 69.3032-31.3955L58.4424-25.1821L51.6924-29.0527L40.3208-35.2539L51.7378-41.4097L58.5752-45.4165L69.2124-39.2031C69.7793-38.9111 70.3599-39.0259 70.687-39.4849C70.9302-39.9609 70.7461-40.4302 70.1372-40.813L60.3726-46.4595L70.9082-52.4863C71.524-52.8271 71.649-53.3486 71.399-53.9224C71.1104-54.3496 70.5401-54.4678 69.9697-54.085L59.4307-47.9673L59.3819-59.3862C59.3819-60.103 59.0445-60.4258 58.4605-60.3804C57.939-60.3804 57.6299-60.061 57.6299-59.3862L57.5913-46.9278L50.7993-43.0083L39.9434-36.6978L40.0992-49.2583L40.0992-57.1777L50.7886-63.332C51.4043-63.6274 51.5713-64.1523 51.293-64.6113C50.9556-65.1328 50.4307-65.2339 49.8184-64.8999L40.0992-59.2183L40.0992-71.3628C40.0992-72.0864 39.7481-72.4966 39.1572-72.4966C38.6221-72.4966 38.2642-72.0864 38.2642-71.3628L38.2642-59.1729L28.3565-64.8999C27.7896-65.2339 27.3623-65.1328 27.0215-64.6113C26.7852-64.1523 26.959-63.6728 27.4805-63.3808L38.2642-57.1323L38.2642-49.2583L38.4619-36.6978L27.5186-43.0083L20.7232-46.9278L20.73-59.3862C20.73-60.061 20.4209-60.3804 19.8574-60.3804C19.228-60.3804 18.978-60.0576 18.978-59.3862L18.9292-47.9673L8.43899-54.085C7.78127-54.419 7.24952-54.3496 6.96094-53.9224C6.71093-53.3486 6.83936-52.8237 7.45167-52.4863L17.9873-46.4595L8.22266-40.813C7.56836-40.4302 7.42968-40.0132 7.67285-39.4395C8-38.9805 8.57716-38.9111 9.19289-39.2031L19.7847-45.4131L26.6221-41.4097L38.0391-35.2539L26.6675-29.0527L19.8301-25.1367L9.05666-31.3955C8.44435-31.6875 8.04883-31.6182 7.7251-31.1592C7.47851-30.54 7.56836-30.1684 8.17725-29.831L18.0327-24.0483L7.49708-18.0215C6.88477-17.6387 6.66894-17.1523 6.96094-16.7217C7.29835-16.2002 7.82668-16.0888 8.43899-16.4228L18.9292-22.4951L18.9326-11.2612C18.9326-10.541 19.228-10.1274 19.812-10.1274C20.3301-10.1274 20.73-10.5376 20.73-11.2612L20.7266-23.5835L27.5186-27.4507L38.4619-33.7646L38.2642-21.3437L38.2642-13.4663L27.4805-7.2212C26.959-6.92579 26.7852-6.44628 27.0215-5.98729C27.3623-5.4658 27.7896-5.36472 28.3565-5.70213L38.2642-11.4257L38.2642 0.764158C38.2642 1.4878 38.6221 1.89796 39.1572 1.89796Z"/>
  </g>
 </g>
</svg>
