<?xml version="1.0" encoding="UTF-8"?>
<!--Generator: Apple Native CoreSVG 232.5-->
<!DOCTYPE svg
PUBLIC "-//W3C//DTD SVG 1.1//EN"
       "http://www.w3.org/Graphics/SVG/1.1/DTD/svg11.dtd">
<svg version="1.1" xmlns="http://www.w3.org/2000/svg" xmlns:xlink="http://www.w3.org/1999/xlink" width="3300" height="2200">
 <!--glyph: "uni1001AD.medium", point size: 100.0, font version: "19.0d8e1", template writer version: "128"-->
 <style>.monochrome-0 {-sfsymbols-motion-group:1}
.monochrome-1 {-sfsymbols-motion-group:0}

.multicolor-0:tintColor {-sfsymbols-motion-group:1}
.multicolor-1:tintColor {-sfsymbols-motion-group:0}

.hierarchical-0:primary {-sfsymbols-motion-group:1}
.hierarchical-1:primary {-sfsymbols-motion-group:0}

.SFSymbolsPreviewWireframe {fill:none;opacity:1.0;stroke:black;stroke-width:0.5}
</style>
 <g id="Notes">
  <rect height="2200" id="artboard" style="fill:white;opacity:1" width="3300" x="0" y="0"/>
  <line style="fill:none;stroke:black;opacity:1;stroke-width:0.5;" x1="263" x2="3036" y1="292" y2="292"/>
  <text style="stroke:none;fill:black;font-family:sans-serif;font-size:13;font-weight:bold;" transform="matrix(1 0 0 1 263 322)">Weight/Scale Variations</text>
  <text style="stroke:none;fill:black;font-family:sans-serif;font-size:13;text-anchor:middle;" transform="matrix(1 0 0 1 559.711 322)">Ultralight</text>
  <text style="stroke:none;fill:black;font-family:sans-serif;font-size:13;text-anchor:middle;" transform="matrix(1 0 0 1 856.422 322)">Thin</text>
  <text style="stroke:none;fill:black;font-family:sans-serif;font-size:13;text-anchor:middle;" transform="matrix(1 0 0 1 1153.13 322)">Light</text>
  <text style="stroke:none;fill:black;font-family:sans-serif;font-size:13;text-anchor:middle;" transform="matrix(1 0 0 1 1449.84 322)">Regular</text>
  <text style="stroke:none;fill:black;font-family:sans-serif;font-size:13;text-anchor:middle;" transform="matrix(1 0 0 1 1746.56 322)">Medium</text>
  <text style="stroke:none;fill:black;font-family:sans-serif;font-size:13;text-anchor:middle;" transform="matrix(1 0 0 1 2043.27 322)">Semibold</text>
  <text style="stroke:none;fill:black;font-family:sans-serif;font-size:13;text-anchor:middle;" transform="matrix(1 0 0 1 2339.98 322)">Bold</text>
  <text style="stroke:none;fill:black;font-family:sans-serif;font-size:13;text-anchor:middle;" transform="matrix(1 0 0 1 2636.69 322)">Heavy</text>
  <text style="stroke:none;fill:black;font-family:sans-serif;font-size:13;text-anchor:middle;" transform="matrix(1 0 0 1 2933.4 322)">Black</text>
  <line style="fill:none;stroke:black;opacity:1;stroke-width:0.5;" x1="263" x2="3036" y1="1903" y2="1903"/>
  <g transform="matrix(0.2 0 0 0.2 263 1933)">
   <path d="m46.2402 4.15039c21.5332 0 39.4531-17.8711 39.4531-39.4043s-17.9688-39.4043-39.502-39.4043c-21.4844 0-39.3555 17.8711-39.3555 39.4043s17.9199 39.4043 39.4043 39.4043Zm0-7.42188c-17.7246 0-31.8848-14.209-31.8848-31.9824s14.1113-31.9824 31.8359-31.9824c17.7734 0 32.0312 14.209 32.0312 31.9824s-14.209 31.9824-31.9824 31.9824Zm-17.9688-31.9824c0 2.14844 1.51367 3.61328 3.75977 3.61328h10.498v10.5957c0 2.19727 1.46484 3.71094 3.61328 3.71094 2.24609 0 3.71094-1.51367 3.71094-3.71094v-10.5957h10.5957c2.19727 0 3.71094-1.46484 3.71094-3.61328 0-2.19727-1.51367-3.71094-3.71094-3.71094h-10.5957v-10.5469c0-2.24609-1.46484-3.75977-3.71094-3.75977-2.14844 0-3.61328 1.51367-3.61328 3.75977v10.5469h-10.498c-2.24609 0-3.75977 1.51367-3.75977 3.71094Z"/>
  </g>
  <g transform="matrix(0.2 0 0 0.2 281.506 1933)">
   <path d="m58.5449 14.5508c27.2461 0 49.8047-22.6074 49.8047-49.8047 0-27.2461-22.6074-49.8047-49.8535-49.8047-27.1973 0-49.7559 22.5586-49.7559 49.8047 0 27.1973 22.6074 49.8047 49.8047 49.8047Zm0-8.30078c-23.0469 0-41.4551-18.457-41.4551-41.5039s18.3594-41.5039 41.4062-41.5039 41.5527 18.457 41.5527 41.5039-18.457 41.5039-41.5039 41.5039Zm-22.6562-41.5039c0 2.39258 1.66016 4.00391 4.15039 4.00391h14.3555v14.4043c0 2.44141 1.66016 4.15039 4.05273 4.15039 2.44141 0 4.15039-1.66016 4.15039-4.15039v-14.4043h14.4043c2.44141 0 4.15039-1.61133 4.15039-4.00391 0-2.44141-1.70898-4.15039-4.15039-4.15039h-14.4043v-14.3555c0-2.49023-1.70898-4.19922-4.15039-4.19922-2.39258 0-4.05273 1.70898-4.05273 4.19922v14.3555h-14.3555c-2.49023 0-4.15039 1.70898-4.15039 4.15039Z"/>
  </g>
  <g transform="matrix(0.2 0 0 0.2 304.924 1933)">
   <path d="m74.8535 28.3203c34.8145 0 63.623-28.8086 63.623-63.5742 0-34.8145-28.8574-63.623-63.6719-63.623-34.7656 0-63.5254 28.8086-63.5254 63.623 0 34.7656 28.8086 63.5742 63.5742 63.5742Zm0-9.08203c-30.1758 0-54.4434-24.3164-54.4434-54.4922 0-30.2246 24.2188-54.4922 54.3945-54.4922 30.2246 0 54.541 24.2676 54.541 54.4922 0 30.1758-24.2676 54.4922-54.4922 54.4922Zm-28.8574-54.4922c0 2.58789 1.85547 4.39453 4.58984 4.39453h19.7266v19.7754c0 2.68555 1.85547 4.58984 4.44336 4.58984 2.68555 0 4.54102-1.85547 4.54102-4.58984v-19.7754h19.7754c2.68555 0 4.58984-1.80664 4.58984-4.39453 0-2.73438-1.85547-4.58984-4.58984-4.58984h-19.7754v-19.7266c0-2.73438-1.85547-4.63867-4.54102-4.63867-2.58789 0-4.44336 1.9043-4.44336 4.63867v19.7266h-19.7266c-2.73438 0-4.58984 1.85547-4.58984 4.58984Z"/>
  </g>
  <text style="stroke:none;fill:black;font-family:sans-serif;font-size:13;font-weight:bold;" transform="matrix(1 0 0 1 263 1953)">Design Variations</text>
  <text style="stroke:none;fill:black;font-family:sans-serif;font-size:13;" transform="matrix(1 0 0 1 263 1971)">Symbols are supported in up to nine weights and three scales.</text>
  <text style="stroke:none;fill:black;font-family:sans-serif;font-size:13;" transform="matrix(1 0 0 1 263 1989)">For optimal layout with text and other symbols, vertically align</text>
  <text style="stroke:none;fill:black;font-family:sans-serif;font-size:13;" transform="matrix(1 0 0 1 263 2007)">symbols with the adjacent text.</text>
  <line style="fill:none;stroke:#00AEEF;stroke-width:0.5;opacity:1.0;" x1="776" x2="776" y1="1919" y2="1933"/>
  <g transform="matrix(0.2 0 0 0.2 776 1933)">
   <path d="m16.5527 0.78125c2.58789 0 3.85742-0.976562 4.78516-3.71094l6.29883-17.2363h28.8086l6.29883 17.2363c0.927734 2.73438 2.19727 3.71094 4.73633 3.71094 2.58789 0 4.24805-1.5625 4.24805-4.00391 0-0.830078-0.146484-1.61133-0.537109-2.63672l-22.9004-60.9863c-1.12305-2.97852-3.125-4.49219-6.25-4.49219-3.02734 0-5.07812 1.46484-6.15234 4.44336l-22.9004 61.084c-0.390625 1.02539-0.537109 1.80664-0.537109 2.63672 0 2.44141 1.5625 3.95508 4.10156 3.95508Zm13.4766-28.3691 11.8652-32.8613h0.244141l11.8652 32.8613Z"/>
  </g>
  <line style="fill:none;stroke:#00AEEF;stroke-width:0.5;opacity:1.0;" x1="792.836" x2="792.836" y1="1919" y2="1933"/>
  <text style="stroke:none;fill:black;font-family:sans-serif;font-size:13;font-weight:bold;" transform="matrix(1 0 0 1 776 1953)">Margins</text>
  <text style="stroke:none;fill:black;font-family:sans-serif;font-size:13;" transform="matrix(1 0 0 1 776 1971)">Leading and trailing margins on the left and right side of each symbol</text>
  <text style="stroke:none;fill:black;font-family:sans-serif;font-size:13;" transform="matrix(1 0 0 1 776 1989)">can be adjusted by modifying the x-location of the margin guidelines.</text>
  <text style="stroke:none;fill:black;font-family:sans-serif;font-size:13;" transform="matrix(1 0 0 1 776 2007)">Modifications are automatically applied proportionally to all</text>
  <text style="stroke:none;fill:black;font-family:sans-serif;font-size:13;" transform="matrix(1 0 0 1 776 2025)">scales and weights.</text>
  <g transform="matrix(0.2 0 0 0.2 1289 1933)">
   <path d="m14.209 9.32617 8.49609 8.54492c4.29688 4.3457 9.22852 4.05273 13.8672-1.07422l53.4668-58.9355-4.83398-4.88281-53.0762 58.3984c-1.75781 2.00195-3.41797 2.49023-5.76172 0.146484l-5.85938-5.81055c-2.34375-2.29492-1.80664-4.00391 0.195312-5.81055l57.373-54.0039-4.88281-4.83398-57.959 54.4434c-4.93164 4.58984-5.32227 9.47266-1.02539 13.8184Zm32.0801-90.9668c-2.09961 2.05078-2.24609 4.93164-1.07422 6.88477 1.17188 1.80664 3.4668 2.97852 6.68945 2.14844 7.32422-1.70898 14.9414-2.00195 22.0703 2.68555l-2.92969 7.27539c-1.70898 4.15039-0.830078 7.08008 1.85547 9.81445l11.4746 11.5723c2.44141 2.44141 4.49219 2.53906 7.32422 2.05078l5.32227-0.976562 3.32031 3.36914-0.195312 2.7832c-0.195312 2.49023 0.439453 4.39453 2.88086 6.78711l3.80859 3.71094c2.39258 2.39258 5.46875 2.53906 7.8125 0.195312l14.5508-14.5996c2.34375-2.34375 2.24609-5.32227-0.146484-7.71484l-3.85742-3.80859c-2.39258-2.39258-4.24805-3.17383-6.64062-2.97852l-2.88086 0.244141-3.22266-3.17383 1.2207-5.61523c0.634766-2.83203-0.146484-5.0293-3.07617-7.95898l-10.9863-10.9375c-16.6992-16.6016-38.8672-16.2109-53.3203-1.75781Zm7.4707 1.85547c12.1582-8.88672 28.6133-7.37305 39.7461 3.75977l12.1582 12.0605c1.17188 1.17188 1.36719 2.09961 1.02539 3.80859l-1.61133 7.42188 7.51953 7.42188 4.93164-0.292969c1.26953-0.0488281 1.66016 0.0488281 2.63672 1.02539l2.88086 2.88086-12.207 12.207-2.88086-2.88086c-0.976562-0.976562-1.12305-1.36719-1.07422-2.68555l0.341797-4.88281-7.4707-7.42188-7.61719 1.26953c-1.61133 0.341797-2.34375 0.195312-3.56445-0.976562l-10.0098-10.0098c-1.26953-1.17188-1.41602-2.00195-0.634766-3.85742l4.39453-10.4492c-7.8125-7.27539-17.9688-10.4004-28.125-7.42188-0.78125 0.195312-1.07422-0.439453-0.439453-0.976562Z"/>
  </g>
  <text style="stroke:none;fill:black;font-family:sans-serif;font-size:13;font-weight:bold;" transform="matrix(1 0 0 1 1289 1953)">Exporting</text>
  <text style="stroke:none;fill:black;font-family:sans-serif;font-size:13;" transform="matrix(1 0 0 1 1289 1971)">Symbols should be outlined when exporting to ensure the</text>
  <text style="stroke:none;fill:black;font-family:sans-serif;font-size:13;" transform="matrix(1 0 0 1 1289 1989)">design is preserved when submitting to Xcode.</text>
  <text id="template-version" style="stroke:none;fill:black;font-family:sans-serif;font-size:13;text-anchor:end;" transform="matrix(1 0 0 1 3036 1933)">Template v.5.0</text>
  <text style="stroke:none;fill:black;font-family:sans-serif;font-size:13;text-anchor:end;" transform="matrix(1 0 0 1 3036 1951)">Requires Xcode 15 or greater</text>
  <text id="descriptive-name" style="stroke:none;fill:black;font-family:sans-serif;font-size:13;text-anchor:end;" transform="matrix(1 0 0 1 3036 1969)">Generated from sun.max</text>
  <text style="stroke:none;fill:black;font-family:sans-serif;font-size:13;text-anchor:end;" transform="matrix(1 0 0 1 3036 1987)">Typeset at 100.0 points</text>
  <text style="stroke:none;fill:black;font-family:sans-serif;font-size:13;" transform="matrix(1 0 0 1 263 726)">Small</text>
  <text style="stroke:none;fill:black;font-family:sans-serif;font-size:13;" transform="matrix(1 0 0 1 263 1156)">Medium</text>
  <text style="stroke:none;fill:black;font-family:sans-serif;font-size:13;" transform="matrix(1 0 0 1 263 1586)">Large</text>
 </g>
 <g id="Guides">
  <g id="H-reference" style="fill:#27AAE1;stroke:none;" transform="matrix(1 0 0 1 339 696)">
   <path d="M0.993654 0L3.63775 0L29.3281-67.1323L30.0303-67.1323L30.0303-70.459L28.1226-70.459ZM11.6885-24.4799L46.9815-24.4799L46.2315-26.7285L12.4385-26.7285ZM55.1196 0L57.7637 0L30.6382-70.459L29.4326-70.459L29.4326-67.1323Z"/>
  </g>
  <line id="Baseline-S" style="fill:none;stroke:#27AAE1;opacity:1;stroke-width:0.5;" x1="263" x2="3036" y1="696" y2="696"/>
  <line id="Capline-S" style="fill:none;stroke:#27AAE1;opacity:1;stroke-width:0.5;" x1="263" x2="3036" y1="625.541" y2="625.541"/>
  <g id="H-reference" style="fill:#27AAE1;stroke:none;" transform="matrix(1 0 0 1 339 1126)">
   <path d="M0.993654 0L3.63775 0L29.3281-67.1323L30.0303-67.1323L30.0303-70.459L28.1226-70.459ZM11.6885-24.4799L46.9815-24.4799L46.2315-26.7285L12.4385-26.7285ZM55.1196 0L57.7637 0L30.6382-70.459L29.4326-70.459L29.4326-67.1323Z"/>
  </g>
  <line id="Baseline-M" style="fill:none;stroke:#27AAE1;opacity:1;stroke-width:0.5;" x1="263" x2="3036" y1="1126" y2="1126"/>
  <line id="Capline-M" style="fill:none;stroke:#27AAE1;opacity:1;stroke-width:0.5;" x1="263" x2="3036" y1="1055.54" y2="1055.54"/>
  <g id="H-reference" style="fill:#27AAE1;stroke:none;" transform="matrix(1 0 0 1 339 1556)">
   <path d="M0.993654 0L3.63775 0L29.3281-67.1323L30.0303-67.1323L30.0303-70.459L28.1226-70.459ZM11.6885-24.4799L46.9815-24.4799L46.2315-26.7285L12.4385-26.7285ZM55.1196 0L57.7637 0L30.6382-70.459L29.4326-70.459L29.4326-67.1323Z"/>
  </g>
  <line id="Baseline-L" style="fill:none;stroke:#27AAE1;opacity:1;stroke-width:0.5;" x1="263" x2="3036" y1="1556" y2="1556"/>
  <line id="Capline-L" style="fill:none;stroke:#27AAE1;opacity:1;stroke-width:0.5;" x1="263" x2="3036" y1="1485.54" y2="1485.54"/>
  <line id="left-margin-Ultralight-S" style="fill:none;stroke:#00AEEF;stroke-width:0.5;opacity:1.0;" x1="512.433" x2="512.433" y1="600.785" y2="720.121"/>
  <line id="right-margin-Ultralight-S" style="fill:none;stroke:#00AEEF;stroke-width:0.5;opacity:1.0;" x1="606.989" x2="606.989" y1="600.785" y2="720.121"/>
  <line id="left-margin-Regular-S" style="fill:none;stroke:#00AEEF;stroke-width:0.5;opacity:1.0;" x1="1401.43" x2="1401.43" y1="600.785" y2="720.121"/>
  <line id="right-margin-Regular-S" style="fill:none;stroke:#00AEEF;stroke-width:0.5;opacity:1.0;" x1="1498.26" x2="1498.26" y1="600.785" y2="720.121"/>
  <line id="left-margin-Black-S" style="fill:none;stroke:#00AEEF;stroke-width:0.5;opacity:1.0;" x1="2878.15" x2="2878.15" y1="600.785" y2="720.121"/>
  <line id="right-margin-Black-S" style="fill:none;stroke:#00AEEF;stroke-width:0.5;opacity:1.0;" x1="2988.65" x2="2988.65" y1="600.785" y2="720.121"/>
 </g>
 <g id="Symbols">
  <g id="Black-S" transform="matrix(1 0 0 1 2878.15 696)">
   <path class="monochrome-0 multicolor-0:tintColor hierarchical-0:primary SFSymbolsPreviewWireframe" d="M55.2246-64.3066C58.6426-64.3066 61.5234-67.1875 61.5234-70.6055L61.5234-77.1973C61.5234-80.6152 58.6426-83.5449 55.2246-83.5449C51.8066-83.5449 48.9258-80.6152 48.9258-77.1973L48.9258-70.6055C48.9258-67.1875 51.8066-64.3066 55.2246-64.3066ZM75.8789-55.5664C78.2227-53.2227 82.373-53.2715 84.7656-55.7129L89.4043-60.4004C91.748-62.7441 91.6992-66.8945 89.2578-69.3359C86.9141-71.6797 82.7637-71.582 80.3711-69.1895L75.7324-64.502C73.3887-62.1582 73.4375-58.0078 75.8789-55.5664ZM84.4238-35.2539C84.4238-31.8359 87.3047-28.9551 90.7227-28.9551L97.3145-28.9551C100.732-28.9551 103.662-31.8359 103.662-35.2539C103.662-38.6719 100.732-41.5527 97.3145-41.5527L90.7227-41.5527C87.3047-41.5527 84.4238-38.6719 84.4238-35.2539ZM75.7324-14.7461C73.3887-12.4023 73.4375-8.30078 75.8789-5.85938L80.5664-1.2207C82.9102 1.12305 87.0605 1.07422 89.502-1.36719C91.8457-3.71094 91.7969-7.86133 89.3555-10.2539L84.668-14.8926C82.3242-17.2363 78.1738-17.1875 75.7324-14.7461ZM55.2246-6.20117C51.8066-6.20117 48.9258-3.32031 48.9258 0.0976562L48.9258 6.68945C48.9258 10.1074 51.8066 13.0371 55.2246 13.0371C58.6426 13.0371 61.5234 10.1074 61.5234 6.68945L61.5234 0.0976562C61.5234-3.32031 58.6426-6.20117 55.2246-6.20117ZM34.7168-14.7461C32.2754-17.1875 28.125-17.2363 25.7812-14.8926L21.0938-10.2539C18.6523-7.86133 18.6035-3.71094 20.9473-1.36719C23.3887 1.07422 27.5391 1.12305 29.8828-1.2207L34.5703-5.85938C37.0117-8.30078 37.0605-12.4023 34.7168-14.7461ZM26.0742-35.2539C26.0742-38.6719 23.1445-41.5527 19.7266-41.5527L13.1348-41.5527C9.7168-41.5527 6.83594-38.6719 6.83594-35.2539C6.83594-31.8359 9.7168-28.9551 13.1348-28.9551L19.7266-28.9551C23.1445-28.9551 26.0742-31.8359 26.0742-35.2539ZM34.5703-55.5664C37.0117-58.0078 37.0605-62.1582 34.7168-64.502L30.0781-69.1895C27.6855-71.582 23.5352-71.6797 21.1914-69.3359C18.75-66.8945 18.7012-62.7441 21.0449-60.4004L25.6836-55.7129C28.0762-53.2715 32.2266-53.2227 34.5703-55.5664Z"/>
   <path class="monochrome-1 multicolor-1:tintColor hierarchical-1:primary SFSymbolsPreviewWireframe" d="M55.2246-12.207C67.8711-12.207 78.2715-22.6074 78.2715-35.2539C78.2715-47.9004 67.8711-58.3008 55.2246-58.3008C42.5781-58.3008 32.1777-47.9004 32.1777-35.2539C32.1777-22.6074 42.5781-12.207 55.2246-12.207ZM55.2246-25.5371C49.9512-25.5371 45.5078-29.9805 45.5078-35.2539C45.5078-40.5273 49.9512-44.9707 55.2246-44.9707C60.498-44.9707 64.9414-40.5273 64.9414-35.2539C64.9414-29.9805 60.498-25.5371 55.2246-25.5371Z"/>
  </g>
  <g id="Regular-S" transform="matrix(1 0 0 1 1401.43 696)">
   <path class="monochrome-0 multicolor-0:tintColor hierarchical-0:primary SFSymbolsPreviewWireframe" d="M48.4375-61.4746C50.4883-61.4746 52.1973-63.2324 52.1973-65.2832L52.1973-73.1934C52.1973-75.2441 50.4883-76.9531 48.4375-76.9531C46.3379-76.9531 44.6289-75.2441 44.6289-73.1934L44.6289-65.2832C44.6289-63.2324 46.3379-61.4746 48.4375-61.4746ZM66.8945-53.7598C68.3594-52.2949 70.8008-52.2461 72.3145-53.7598L77.9297-59.3262C79.3457-60.791 79.3457-63.2812 77.9297-64.7461C76.4648-66.2109 74.0234-66.2109 72.5586-64.7461L66.8945-59.082C65.4785-57.6172 65.4785-55.2246 66.8945-53.7598ZM74.5605-35.2539C74.5605-33.2031 76.3184-31.4453 78.3691-31.4453L86.1816-31.4453C88.2812-31.4453 89.9902-33.2031 89.9902-35.2539C89.9902-37.3047 88.2812-39.0625 86.1816-39.0625L78.3691-39.0625C76.3184-39.0625 74.5605-37.3047 74.5605-35.2539ZM66.8945-16.6992C65.4785-15.2344 65.4785-12.8418 66.8945-11.377L72.5586-5.71289C74.0234-4.24805 76.4648-4.29688 77.9297-5.76172C79.3457-7.22656 79.3457-9.66797 77.9297-11.1328L72.2656-16.6992C70.8008-18.1641 68.3594-18.1641 66.8945-16.6992ZM48.4375-9.0332C46.3379-9.0332 44.6289-7.27539 44.6289-5.22461L44.6289 2.68555C44.6289 4.73633 46.3379 6.44531 48.4375 6.44531C50.4883 6.44531 52.1973 4.73633 52.1973 2.68555L52.1973-5.22461C52.1973-7.27539 50.4883-9.0332 48.4375-9.0332ZM29.9316-16.6992C28.4668-18.1641 25.9766-18.1641 24.5117-16.6992L18.9453-11.1816C17.4805-9.7168 17.4805-7.27539 18.8965-5.81055C20.3613-4.3457 22.8027-4.29688 24.2676-5.76172L29.8828-11.377C31.3477-12.8418 31.3477-15.2344 29.9316-16.6992ZM22.2656-35.2539C22.2656-37.3047 20.5566-39.0625 18.457-39.0625L10.6445-39.0625C8.54492-39.0625 6.83594-37.3047 6.83594-35.2539C6.83594-33.2031 8.54492-31.4453 10.6445-31.4453L18.457-31.4453C20.5566-31.4453 22.2656-33.2031 22.2656-35.2539ZM29.8828-53.7598C31.3477-55.1758 31.3477-57.666 29.9316-59.082L24.3164-64.7461C22.9004-66.1621 20.4102-66.2109 18.9941-64.7461C17.5293-63.2812 17.5293-60.791 18.9453-59.375L24.5117-53.7598C25.9766-52.2949 28.418-52.2949 29.8828-53.7598Z"/>
   <path class="monochrome-1 multicolor-1:tintColor hierarchical-1:primary SFSymbolsPreviewWireframe" d="M48.4375-15.332C59.2773-15.332 68.3105-24.3164 68.3105-35.2539C68.3105-46.1914 59.2773-55.1758 48.4375-55.1758C37.5488-55.1758 28.5156-46.1914 28.5156-35.2539C28.5156-24.3164 37.5488-15.332 48.4375-15.332ZM48.4375-21.9727C41.1621-21.9727 35.1562-28.0273 35.1562-35.2539C35.1562-42.4805 41.1621-48.5352 48.4375-48.5352C55.6641-48.5352 61.6699-42.4805 61.6699-35.2539C61.6699-28.0273 55.6641-21.9727 48.4375-21.9727Z"/>
  </g>
  <g id="Ultralight-S" transform="matrix(1 0 0 1 512.433 696)">
   <path class="monochrome-0 multicolor-0:tintColor hierarchical-0:primary SFSymbolsPreviewWireframe" d="M47.2568-63.5635C47.9453-63.5635 48.3828-64.0044 48.3828-64.6929L48.3828-74.6011C48.3828-75.2441 47.9453-75.6817 47.2568-75.6817C46.6103-75.6817 46.1728-75.2441 46.1728-74.6011L46.1728-64.6929C46.1728-64.0044 46.6103-63.5635 47.2568-63.5635ZM67.2578-55.2583C67.769-54.8379 68.3941-54.8345 68.8633-55.2583L75.8862-62.2324C76.3032-62.7436 76.3032-63.3721 75.8862-63.8833C75.375-64.2583 74.75-64.2583 74.2842-63.8833L67.2578-56.857C66.8862-56.3457 66.8862-55.7241 67.2578-55.2583ZM75.5596-35.2539C75.5596-34.6108 76.0459-34.1245 76.689-34.1245L86.5903-34.1245C87.2822-34.1245 87.7197-34.6108 87.7197-35.2539C87.7197-35.897 87.2822-36.3833 86.5903-36.3833L76.689-36.3833C76.0459-36.3833 75.5596-35.897 75.5596-35.2539ZM67.2578-15.2461C66.8862-14.7803 66.8862-14.1587 67.2578-13.6474L74.2842-6.62109C74.75-6.24608 75.375-6.2495 75.8862-6.6245C76.3032-7.13574 76.3032-7.76076 75.8862-8.272L68.8599-15.2461C68.3941-15.6665 67.769-15.6665 67.2578-15.2461ZM47.2568-6.94435C46.6103-6.94435 46.1728-6.50342 46.1728-5.81494L46.1728 4.09325C46.1728 4.73633 46.6103 5.17384 47.2568 5.17384C47.9453 5.17384 48.3828 4.73633 48.3828 4.09325L48.3828-5.81494C48.3828-6.50342 47.9453-6.94435 47.2568-6.94435ZM27.2979-15.2461C26.7866-15.6665 26.1582-15.6665 25.6924-15.2461L18.6729-8.27541C18.2524-7.76418 18.2524-7.13916 18.6694-6.62792C19.1353-6.25291 19.8057-6.2495 20.2715-6.6245L27.2945-13.6474C27.6695-14.1587 27.6695-14.7803 27.2979-15.2461ZM18.9507-35.2539C18.9507-35.897 18.5132-36.3833 17.8667-36.3833L7.96535-36.3833C7.27345-36.3833 6.83594-35.897 6.83594-35.2539C6.83594-34.6108 7.27345-34.1245 7.96535-34.1245L17.8667-34.1245C18.5132-34.1245 18.9507-34.6108 18.9507-35.2539ZM27.2945-55.2583C27.6695-55.7207 27.6695-56.3491 27.2979-56.857L20.2749-63.8833C19.8125-64.2549 19.1387-64.2583 18.6763-63.8833C18.2559-63.3721 18.2559-62.7436 18.6729-62.2358L25.6924-55.2583C26.1582-54.8379 26.7832-54.8379 27.2945-55.2583Z"/>
   <path class="monochrome-1 multicolor-1:tintColor hierarchical-1:primary SFSymbolsPreviewWireframe" d="M47.166-17.5571C56.8706-17.5571 64.8594-25.5879 64.8594-35.2539C64.8594-44.9199 56.8706-52.9507 47.166-52.9507C37.5034-52.9507 29.4692-44.9199 29.4692-35.2539C29.4692-25.5879 37.5034-17.5571 47.166-17.5571ZM47.166-19.7476C38.71-19.7476 31.6597-26.7559 31.6597-35.2539C31.6597-43.7519 38.71-50.7602 47.166-50.7602C55.6641-50.7602 62.6689-43.7519 62.6689-35.2539C62.6689-26.7559 55.6641-19.7476 47.166-19.7476Z"/>
  </g>
 </g>
</svg>
