<?xml version="1.0" encoding="UTF-8"?>
<!--Generator: Apple Native CoreSVG 232.5-->
<!DOCTYPE svg
PUBLIC "-//W3C//DTD SVG 1.1//EN"
       "http://www.w3.org/Graphics/SVG/1.1/DTD/svg11.dtd">
<svg version="1.1" xmlns="http://www.w3.org/2000/svg" xmlns:xlink="http://www.w3.org/1999/xlink" width="3300" height="2200">
 <!--glyph: "uni101B02.medium", point size: 100.0, font version: "19.0d8e1", template writer version: "128"-->
 <style>.monochrome-0 {-sfsymbols-motion-group:2}
.monochrome-1 {-sfsymbols-motion-group:1}
.monochrome-2 {opacity:0.0;-sfsymbols-clear-behind:true;-sfsymbols-motion-group:0}
.monochrome-3 {-sfsymbols-motion-group:0}

.multicolor-0:white {-sfsymbols-motion-group:2}
.multicolor-1:white {-sfsymbols-motion-group:1}
.multicolor-2:tintColor {opacity:0.0;-sfsymbols-clear-behind:true;-sfsymbols-motion-group:0}
.multicolor-3:white {-sfsymbols-motion-group:0}

.hierarchical-0:primary {-sfsymbols-motion-group:2}
.hierarchical-1:secondary {-sfsymbols-motion-group:1}
.hierarchical-2:primary {opacity:0.0;-sfsymbols-clear-behind:true;-sfsymbols-motion-group:0}
.hierarchical-3:primary {-sfsymbols-motion-group:0}

.SFSymbolsPreviewWireframe {fill:none;opacity:1.0;stroke:black;stroke-width:0.5}
</style>
 <g id="Notes">
  <rect height="2200" id="artboard" style="fill:white;opacity:1" width="3300" x="0" y="0"/>
  <line style="fill:none;stroke:black;opacity:1;stroke-width:0.5;" x1="263" x2="3036" y1="292" y2="292"/>
  <text style="stroke:none;fill:black;font-family:sans-serif;font-size:13;font-weight:bold;" transform="matrix(1 0 0 1 263 322)">Weight/Scale Variations</text>
  <text style="stroke:none;fill:black;font-family:sans-serif;font-size:13;text-anchor:middle;" transform="matrix(1 0 0 1 559.711 322)">Ultralight</text>
  <text style="stroke:none;fill:black;font-family:sans-serif;font-size:13;text-anchor:middle;" transform="matrix(1 0 0 1 856.422 322)">Thin</text>
  <text style="stroke:none;fill:black;font-family:sans-serif;font-size:13;text-anchor:middle;" transform="matrix(1 0 0 1 1153.13 322)">Light</text>
  <text style="stroke:none;fill:black;font-family:sans-serif;font-size:13;text-anchor:middle;" transform="matrix(1 0 0 1 1449.84 322)">Regular</text>
  <text style="stroke:none;fill:black;font-family:sans-serif;font-size:13;text-anchor:middle;" transform="matrix(1 0 0 1 1746.56 322)">Medium</text>
  <text style="stroke:none;fill:black;font-family:sans-serif;font-size:13;text-anchor:middle;" transform="matrix(1 0 0 1 2043.27 322)">Semibold</text>
  <text style="stroke:none;fill:black;font-family:sans-serif;font-size:13;text-anchor:middle;" transform="matrix(1 0 0 1 2339.98 322)">Bold</text>
  <text style="stroke:none;fill:black;font-family:sans-serif;font-size:13;text-anchor:middle;" transform="matrix(1 0 0 1 2636.69 322)">Heavy</text>
  <text style="stroke:none;fill:black;font-family:sans-serif;font-size:13;text-anchor:middle;" transform="matrix(1 0 0 1 2933.4 322)">Black</text>
  <line style="fill:none;stroke:black;opacity:1;stroke-width:0.5;" x1="263" x2="3036" y1="1903" y2="1903"/>
  <g transform="matrix(0.2 0 0 0.2 263 1933)">
   <path d="m46.2402 4.15039c21.5332 0 39.4531-17.8711 39.4531-39.4043s-17.9688-39.4043-39.502-39.4043c-21.4844 0-39.3555 17.8711-39.3555 39.4043s17.9199 39.4043 39.4043 39.4043Zm0-7.42188c-17.7246 0-31.8848-14.209-31.8848-31.9824s14.1113-31.9824 31.8359-31.9824c17.7734 0 32.0312 14.209 32.0312 31.9824s-14.209 31.9824-31.9824 31.9824Zm-17.9688-31.9824c0 2.14844 1.51367 3.61328 3.75977 3.61328h10.498v10.5957c0 2.19727 1.46484 3.71094 3.61328 3.71094 2.24609 0 3.71094-1.51367 3.71094-3.71094v-10.5957h10.5957c2.19727 0 3.71094-1.46484 3.71094-3.61328 0-2.19727-1.51367-3.71094-3.71094-3.71094h-10.5957v-10.5469c0-2.24609-1.46484-3.75977-3.71094-3.75977-2.14844 0-3.61328 1.51367-3.61328 3.75977v10.5469h-10.498c-2.24609 0-3.75977 1.51367-3.75977 3.71094Z"/>
  </g>
  <g transform="matrix(0.2 0 0 0.2 281.506 1933)">
   <path d="m58.5449 14.5508c27.2461 0 49.8047-22.6074 49.8047-49.8047 0-27.2461-22.6074-49.8047-49.8535-49.8047-27.1973 0-49.7559 22.5586-49.7559 49.8047 0 27.1973 22.6074 49.8047 49.8047 49.8047Zm0-8.30078c-23.0469 0-41.4551-18.457-41.4551-41.5039s18.3594-41.5039 41.4062-41.5039 41.5527 18.457 41.5527 41.5039-18.457 41.5039-41.5039 41.5039Zm-22.6562-41.5039c0 2.39258 1.66016 4.00391 4.15039 4.00391h14.3555v14.4043c0 2.44141 1.66016 4.15039 4.05273 4.15039 2.44141 0 4.15039-1.66016 4.15039-4.15039v-14.4043h14.4043c2.44141 0 4.15039-1.61133 4.15039-4.00391 0-2.44141-1.70898-4.15039-4.15039-4.15039h-14.4043v-14.3555c0-2.49023-1.70898-4.19922-4.15039-4.19922-2.39258 0-4.05273 1.70898-4.05273 4.19922v14.3555h-14.3555c-2.49023 0-4.15039 1.70898-4.15039 4.15039Z"/>
  </g>
  <g transform="matrix(0.2 0 0 0.2 304.924 1933)">
   <path d="m74.8535 28.3203c34.8145 0 63.623-28.8086 63.623-63.5742 0-34.8145-28.8574-63.623-63.6719-63.623-34.7656 0-63.5254 28.8086-63.5254 63.623 0 34.7656 28.8086 63.5742 63.5742 63.5742Zm0-9.08203c-30.1758 0-54.4434-24.3164-54.4434-54.4922 0-30.2246 24.2188-54.4922 54.3945-54.4922 30.2246 0 54.541 24.2676 54.541 54.4922 0 30.1758-24.2676 54.4922-54.4922 54.4922Zm-28.8574-54.4922c0 2.58789 1.85547 4.39453 4.58984 4.39453h19.7266v19.7754c0 2.68555 1.85547 4.58984 4.44336 4.58984 2.68555 0 4.54102-1.85547 4.54102-4.58984v-19.7754h19.7754c2.68555 0 4.58984-1.80664 4.58984-4.39453 0-2.73438-1.85547-4.58984-4.58984-4.58984h-19.7754v-19.7266c0-2.73438-1.85547-4.63867-4.54102-4.63867-2.58789 0-4.44336 1.9043-4.44336 4.63867v19.7266h-19.7266c-2.73438 0-4.58984 1.85547-4.58984 4.58984Z"/>
  </g>
  <text style="stroke:none;fill:black;font-family:sans-serif;font-size:13;font-weight:bold;" transform="matrix(1 0 0 1 263 1953)">Design Variations</text>
  <text style="stroke:none;fill:black;font-family:sans-serif;font-size:13;" transform="matrix(1 0 0 1 263 1971)">Symbols are supported in up to nine weights and three scales.</text>
  <text style="stroke:none;fill:black;font-family:sans-serif;font-size:13;" transform="matrix(1 0 0 1 263 1989)">For optimal layout with text and other symbols, vertically align</text>
  <text style="stroke:none;fill:black;font-family:sans-serif;font-size:13;" transform="matrix(1 0 0 1 263 2007)">symbols with the adjacent text.</text>
  <line style="fill:none;stroke:#00AEEF;stroke-width:0.5;opacity:1.0;" x1="776" x2="776" y1="1919" y2="1933"/>
  <g transform="matrix(0.2 0 0 0.2 776 1933)">
   <path d="m16.5527 0.78125c2.58789 0 3.85742-0.976562 4.78516-3.71094l6.29883-17.2363h28.8086l6.29883 17.2363c0.927734 2.73438 2.19727 3.71094 4.73633 3.71094 2.58789 0 4.24805-1.5625 4.24805-4.00391 0-0.830078-0.146484-1.61133-0.537109-2.63672l-22.9004-60.9863c-1.12305-2.97852-3.125-4.49219-6.25-4.49219-3.02734 0-5.07812 1.46484-6.15234 4.44336l-22.9004 61.084c-0.390625 1.02539-0.537109 1.80664-0.537109 2.63672 0 2.44141 1.5625 3.95508 4.10156 3.95508Zm13.4766-28.3691 11.8652-32.8613h0.244141l11.8652 32.8613Z"/>
  </g>
  <line style="fill:none;stroke:#00AEEF;stroke-width:0.5;opacity:1.0;" x1="792.836" x2="792.836" y1="1919" y2="1933"/>
  <text style="stroke:none;fill:black;font-family:sans-serif;font-size:13;font-weight:bold;" transform="matrix(1 0 0 1 776 1953)">Margins</text>
  <text style="stroke:none;fill:black;font-family:sans-serif;font-size:13;" transform="matrix(1 0 0 1 776 1971)">Leading and trailing margins on the left and right side of each symbol</text>
  <text style="stroke:none;fill:black;font-family:sans-serif;font-size:13;" transform="matrix(1 0 0 1 776 1989)">can be adjusted by modifying the x-location of the margin guidelines.</text>
  <text style="stroke:none;fill:black;font-family:sans-serif;font-size:13;" transform="matrix(1 0 0 1 776 2007)">Modifications are automatically applied proportionally to all</text>
  <text style="stroke:none;fill:black;font-family:sans-serif;font-size:13;" transform="matrix(1 0 0 1 776 2025)">scales and weights.</text>
  <g transform="matrix(0.2 0 0 0.2 1289 1933)">
   <path d="m14.209 9.32617 8.49609 8.54492c4.29688 4.3457 9.22852 4.05273 13.8672-1.07422l53.4668-58.9355-4.83398-4.88281-53.0762 58.3984c-1.75781 2.00195-3.41797 2.49023-5.76172 0.146484l-5.85938-5.81055c-2.34375-2.29492-1.80664-4.00391 0.195312-5.81055l57.373-54.0039-4.88281-4.83398-57.959 54.4434c-4.93164 4.58984-5.32227 9.47266-1.02539 13.8184Zm32.0801-90.9668c-2.09961 2.05078-2.24609 4.93164-1.07422 6.88477 1.17188 1.80664 3.4668 2.97852 6.68945 2.14844 7.32422-1.70898 14.9414-2.00195 22.0703 2.68555l-2.92969 7.27539c-1.70898 4.15039-0.830078 7.08008 1.85547 9.81445l11.4746 11.5723c2.44141 2.44141 4.49219 2.53906 7.32422 2.05078l5.32227-0.976562 3.32031 3.36914-0.195312 2.7832c-0.195312 2.49023 0.439453 4.39453 2.88086 6.78711l3.80859 3.71094c2.39258 2.39258 5.46875 2.53906 7.8125 0.195312l14.5508-14.5996c2.34375-2.34375 2.24609-5.32227-0.146484-7.71484l-3.85742-3.80859c-2.39258-2.39258-4.24805-3.17383-6.64062-2.97852l-2.88086 0.244141-3.22266-3.17383 1.2207-5.61523c0.634766-2.83203-0.146484-5.0293-3.07617-7.95898l-10.9863-10.9375c-16.6992-16.6016-38.8672-16.2109-53.3203-1.75781Zm7.4707 1.85547c12.1582-8.88672 28.6133-7.37305 39.7461 3.75977l12.1582 12.0605c1.17188 1.17188 1.36719 2.09961 1.02539 3.80859l-1.61133 7.42188 7.51953 7.42188 4.93164-0.292969c1.26953-0.0488281 1.66016 0.0488281 2.63672 1.02539l2.88086 2.88086-12.207 12.207-2.88086-2.88086c-0.976562-0.976562-1.12305-1.36719-1.07422-2.68555l0.341797-4.88281-7.4707-7.42188-7.61719 1.26953c-1.61133 0.341797-2.34375 0.195312-3.56445-0.976562l-10.0098-10.0098c-1.26953-1.17188-1.41602-2.00195-0.634766-3.85742l4.39453-10.4492c-7.8125-7.27539-17.9688-10.4004-28.125-7.42188-0.78125 0.195312-1.07422-0.439453-0.439453-0.976562Z"/>
  </g>
  <text style="stroke:none;fill:black;font-family:sans-serif;font-size:13;font-weight:bold;" transform="matrix(1 0 0 1 1289 1953)">Exporting</text>
  <text style="stroke:none;fill:black;font-family:sans-serif;font-size:13;" transform="matrix(1 0 0 1 1289 1971)">Symbols should be outlined when exporting to ensure the</text>
  <text style="stroke:none;fill:black;font-family:sans-serif;font-size:13;" transform="matrix(1 0 0 1 1289 1989)">design is preserved when submitting to Xcode.</text>
  <text id="template-version" style="stroke:none;fill:black;font-family:sans-serif;font-size:13;text-anchor:end;" transform="matrix(1 0 0 1 3036 1933)">Template v.5.0</text>
  <text style="stroke:none;fill:black;font-family:sans-serif;font-size:13;text-anchor:end;" transform="matrix(1 0 0 1 3036 1951)">Requires Xcode 15 or greater</text>
  <text id="descriptive-name" style="stroke:none;fill:black;font-family:sans-serif;font-size:13;text-anchor:end;" transform="matrix(1 0 0 1 3036 1969)">Generated from cloud.moon.bolt.fill</text>
  <text style="stroke:none;fill:black;font-family:sans-serif;font-size:13;text-anchor:end;" transform="matrix(1 0 0 1 3036 1987)">Typeset at 100.0 points</text>
  <text style="stroke:none;fill:black;font-family:sans-serif;font-size:13;" transform="matrix(1 0 0 1 263 726)">Small</text>
  <text style="stroke:none;fill:black;font-family:sans-serif;font-size:13;" transform="matrix(1 0 0 1 263 1156)">Medium</text>
  <text style="stroke:none;fill:black;font-family:sans-serif;font-size:13;" transform="matrix(1 0 0 1 263 1586)">Large</text>
 </g>
 <g id="Guides">
  <g id="H-reference" style="fill:#27AAE1;stroke:none;" transform="matrix(1 0 0 1 339 696)">
   <path d="M0.993654 0L3.63775 0L29.3281-67.1323L30.0303-67.1323L30.0303-70.459L28.1226-70.459ZM11.6885-24.4799L46.9815-24.4799L46.2315-26.7285L12.4385-26.7285ZM55.1196 0L57.7637 0L30.6382-70.459L29.4326-70.459L29.4326-67.1323Z"/>
  </g>
  <line id="Baseline-S" style="fill:none;stroke:#27AAE1;opacity:1;stroke-width:0.5;" x1="263" x2="3036" y1="696" y2="696"/>
  <line id="Capline-S" style="fill:none;stroke:#27AAE1;opacity:1;stroke-width:0.5;" x1="263" x2="3036" y1="625.541" y2="625.541"/>
  <g id="H-reference" style="fill:#27AAE1;stroke:none;" transform="matrix(1 0 0 1 339 1126)">
   <path d="M0.993654 0L3.63775 0L29.3281-67.1323L30.0303-67.1323L30.0303-70.459L28.1226-70.459ZM11.6885-24.4799L46.9815-24.4799L46.2315-26.7285L12.4385-26.7285ZM55.1196 0L57.7637 0L30.6382-70.459L29.4326-70.459L29.4326-67.1323Z"/>
  </g>
  <line id="Baseline-M" style="fill:none;stroke:#27AAE1;opacity:1;stroke-width:0.5;" x1="263" x2="3036" y1="1126" y2="1126"/>
  <line id="Capline-M" style="fill:none;stroke:#27AAE1;opacity:1;stroke-width:0.5;" x1="263" x2="3036" y1="1055.54" y2="1055.54"/>
  <g id="H-reference" style="fill:#27AAE1;stroke:none;" transform="matrix(1 0 0 1 339 1556)">
   <path d="M0.993654 0L3.63775 0L29.3281-67.1323L30.0303-67.1323L30.0303-70.459L28.1226-70.459ZM11.6885-24.4799L46.9815-24.4799L46.2315-26.7285L12.4385-26.7285ZM55.1196 0L57.7637 0L30.6382-70.459L29.4326-70.459L29.4326-67.1323Z"/>
  </g>
  <line id="Baseline-L" style="fill:none;stroke:#27AAE1;opacity:1;stroke-width:0.5;" x1="263" x2="3036" y1="1556" y2="1556"/>
  <line id="Capline-L" style="fill:none;stroke:#27AAE1;opacity:1;stroke-width:0.5;" x1="263" x2="3036" y1="1485.54" y2="1485.54"/>
  <line id="left-margin-Ultralight-S" style="fill:none;stroke:#00AEEF;stroke-width:0.5;opacity:1.0;" x1="509.767" x2="509.767" y1="600.785" y2="720.121"/>
  <line id="right-margin-Ultralight-S" style="fill:none;stroke:#FF3B30;stroke-width:0.5;opacity:1.0;" x1="609.655" x2="609.655" y1="600.785" y2="720.121"/>
  <line id="left-margin-Regular-S" style="fill:none;stroke:#FF3B30;stroke-width:0.5;opacity:1.0;" x1="1398.38" x2="1398.38" y1="600.785" y2="720.121"/>
  <line id="right-margin-Regular-S" style="fill:none;stroke:#FF3B30;stroke-width:0.5;opacity:1.0;" x1="1501.31" x2="1501.31" y1="600.785" y2="720.121"/>
  <line id="left-margin-Black-S" style="fill:none;stroke:#FF3B30;stroke-width:0.5;opacity:1.0;" x1="2877" x2="2877" y1="600.785" y2="720.121"/>
  <line id="right-margin-Black-S" style="fill:none;stroke:#FF3B30;stroke-width:0.5;opacity:1.0;" x1="2989.8" x2="2989.8" y1="600.785" y2="720.121"/>
 </g>
 <g id="Symbols">
  <g id="Black-S" transform="matrix(1 0 0 1 2877 696)">
   <path class="monochrome-0 multicolor-0:white hierarchical-0:primary SFSymbolsPreviewWireframe" d="M57.1289 0.634766L46.6797 0.634766L46.3379 3.56445L50.9277-5.22461C51.3672-6.05469 51.0254-6.73828 50.1465-6.73828L38.3789-6.73828C37.2559-6.73828 36.8652-6.34766 36.5234-5.51758L31.1035 6.83594C30.7129 7.76367 31.0547 8.39844 32.0801 8.39844L40.5273 8.39844L40.5273 5.95703L34.1797 21.3379C33.9355 21.875 34.082 22.3145 34.4238 22.4609C34.7656 22.6074 35.2051 22.5098 35.6445 22.1191L57.7148 2.63672C58.6426 1.85547 58.3008 0.634766 57.1289 0.634766Z"/>
   <path class="monochrome-1 multicolor-1:white hierarchical-1:secondary SFSymbolsPreviewWireframe" d="M89.6484-37.3535C105.518-37.3535 114.209-51.3672 114.209-58.3496C114.209-60.1562 113.477-61.4258 112.061-61.4258C109.717-61.4258 106.543-59.082 100.781-59.082C92.041-59.082 86.6211-64.4531 86.6211-72.6074C86.6211-78.3203 88.6719-82.373 88.6719-84.8633C88.6719-86.1816 87.793-87.1094 86.2305-87.1094C79.1992-87.1094 65.7227-77.5391 65.7227-62.8418C65.7227-47.9004 75.0977-37.3535 89.6484-37.3535Z"/>
   <path class="monochrome-2 multicolor-2:tintColor hierarchical-2:primary SFSymbolsPreviewWireframe" d="M20.752-4.93164L68.5059-4.93164C84.3262-4.93164 96.2891-17.4805 96.2891-33.5938C96.2891-48.9258 85.791-60.7422 71.0938-62.7441C65.8691-70.1172 56.7383-77.1484 42.2852-77.1484C25.7812-77.1484 11.9141-66.1133 8.30078-50.8301C0.439453-46.7773-4.44336-38.6719-4.44336-29.2969C-4.44336-15.0391 6.20117-4.93164 20.752-4.93164Z"/>
   <path class="monochrome-3 multicolor-3:white hierarchical-3:primary SFSymbolsPreviewWireframe" d="M20.752-12.9883L68.5059-12.9883C79.7852-12.9883 88.2324-21.8262 88.2324-33.5938C88.2324-46.0449 79.1016-55.0781 66.4551-54.9805C62.6953-61.9629 55.4199-69.0918 42.2852-69.0918C28.125-69.0918 16.6016-58.7402 15.5273-44.9707C8.30078-43.1641 3.61328-37.0117 3.61328-29.2969C3.61328-19.5801 10.5469-12.9883 20.752-12.9883Z"/>
  </g>
  <g id="Regular-S" transform="matrix(1 0 0 1 1398.38 696)">
   <path class="monochrome-0 multicolor-0:white hierarchical-0:primary SFSymbolsPreviewWireframe" d="M53.0273-3.125L44.3359-3.125L44.1406-1.36719L48.3887-9.47266C48.8281-10.3027 48.4863-10.9375 47.6562-10.9375L38.5254-10.9375C37.5-10.9375 37.1582-10.5469 36.8164-9.76562L31.8359 1.51367C31.4453 2.39258 31.7871 2.97852 32.7637 2.97852L39.9414 2.97852L40.4297 0.78125L34.5215 14.9902C34.3262 15.4785 34.4238 15.8691 34.8145 16.0156C35.1562 16.1621 35.5469 16.0645 35.9375 15.6738L53.5156-1.26953C54.3457-2.05078 54.1016-3.125 53.0273-3.125Z"/>
   <path class="monochrome-1 multicolor-1:white hierarchical-1:secondary SFSymbolsPreviewWireframe" d="M81.7383-36.5723C97.168-36.5723 104.639-48.291 104.639-55.0293C104.639-56.6895 103.906-57.9102 102.588-57.9102C100.537-57.9102 97.998-55.3223 92.3828-55.3223C83.1055-55.3223 77.3926-60.7422 77.3926-69.1895C77.3926-74.3652 80.2734-78.0762 80.2734-80.2734C80.2734-81.543 79.4434-82.4219 77.8809-82.373C70.459-82.3242 58.9355-73.1934 58.9355-59.3262C58.9355-46.5332 68.9941-36.5723 81.7383-36.5723Z"/>
   <path class="monochrome-2 multicolor-2:tintColor hierarchical-2:primary SFSymbolsPreviewWireframe" d="M20.166-11.5723L61.4258-11.5723C75.2441-11.5723 86.084-22.2168 86.084-35.8887C86.084-48.584 76.5625-58.3496 63.7695-59.8145C58.2031-68.3105 49.1699-73.3398 38.9648-73.3398C24.7559-73.3398 12.5977-63.2812 9.81445-49.6094C3.02734-46.2402-1.2207-39.502-1.2207-31.543C-1.2207-19.8242 7.71484-11.5723 20.166-11.5723Z"/>
   <path class="monochrome-3 multicolor-3:white hierarchical-3:primary SFSymbolsPreviewWireframe" d="M20.166-16.748L61.4258-16.748C72.4121-16.748 80.957-25.0977 80.957-35.8887C80.957-46.6309 72.2656-54.7363 60.6934-54.834C56.2988-63.2324 48.2422-68.2129 38.9648-68.2129C26.3672-68.2129 15.6738-58.5449 14.4531-45.9473C8.00781-43.9453 3.90625-38.3789 3.90625-31.543C3.90625-22.7539 10.498-16.748 20.166-16.748Z"/>
  </g>
  <g id="Ultralight-S" transform="matrix(1 0 0 1 509.767 696)">
   <path class="monochrome-0 multicolor-0:white hierarchical-0:primary SFSymbolsPreviewWireframe" d="M47.0333-5.35008L39.9766-5.35008L40.4624-4.31882L45.21-13.1963C45.6494-14.0263 45.3076-14.7065 44.4322-14.7065L41.6133-14.7065C40.497-14.7065 40.1098-14.3159 39.768-13.4892L35.2417-3.02731C34.8056-2.01217 35.4199-1.47164 36.351-1.47164L41.7578-1.47164L42.2461-3.80514L36.6103 9.63188C36.3696 10.211 36.5127 10.6924 36.9033 10.8389C37.2905 10.9854 37.772 10.7969 38.1172 10.2701L47.8848-3.58543C48.4878-4.4575 48.1075-5.35008 47.0333-5.35008Z"/>
   <path class="monochrome-1 multicolor-1:white hierarchical-1:secondary SFSymbolsPreviewWireframe" d="M80.4668-38.8428C94.8521-38.8428 101.778-50.9702 101.778-55.3018C101.778-56.0537 101.318-56.5025 100.59-56.5025C99.5381-56.5025 95.5913-54.9136 91.293-54.9136C80.7896-54.9136 75.3037-60.1065 75.3037-70.5063C75.3037-75.0464 77.2764-78.6211 77.2764-79.7739C77.2764-80.7256 76.6734-81.1504 75.2925-80.9653C65.6001-79.645 59.8437-69.3335 59.8437-60.7793C59.8437-48.4858 68.6309-38.8428 80.4668-38.8428Z"/>
   <path class="monochrome-2 multicolor-2:tintColor hierarchical-2:primary SFSymbolsPreviewWireframe" d="M18.9854-17.7026L61.0625-17.7026C72.7012-17.7026 82.0425-26.5761 82.0425-37.8867C82.0425-48.811 73.3838-57.0327 61.8623-57.8164C56.6138-66.9937 48.4434-72.023 38.647-72.023C25.9819-72.023 15.2314-62.146 13.311-49.1553C6.29685-46.6035 1.73093-40.7734 1.73093-33.5864C1.73093-24.2744 9.07714-17.7026 18.9854-17.7026Z"/>
   <path class="monochrome-3 multicolor-3:white hierarchical-3:primary SFSymbolsPreviewWireframe" d="M18.9854-20.7441L61.0625-20.7441C71.0498-20.7441 79.0044-28.3218 79.0044-37.8867C79.0044-47.5845 70.8579-54.8726 60.0576-54.834C55.3452-64.0498 47.8335-68.9849 38.647-68.9849C26.9121-68.9849 17.0361-59.3169 16.0879-46.8101C9.18847-45.126 4.76904-39.9682 4.76904-33.5864C4.76904-26.0688 10.6343-20.7441 18.9854-20.7441Z"/>
  </g>
 </g>
</svg>
